<svg width="55" height="55" viewBox="0 0 55 55" fill="none" xmlns="http://www.w3.org/2000/svg">
<rect width="55" height="55" rx="24" fill="#FDF6E4"/>
<path fill-rule="evenodd" clip-rule="evenodd" d="M43.76 9.5H35.61C34.65 9.5 33.86 10.28 33.86 11.24V15.89C33.86 16.85 34.65 17.63 35.61 17.63H37.16L36.56 21.13L42.18 17.63H43.76C44.72 17.63 45.5 16.85 45.5 15.89V11.24C45.5 10.28 44.72 9.5 43.76 9.5ZM44.34 15.89C44.34 16.21 44.08 16.47 43.76 16.47H41.84L38.15 18.77L38.54 16.47H35.61C35.29 16.47 35.03 16.21 35.03 15.89V11.24C35.03 10.92 35.29 10.66 35.61 10.66H43.76C44.08 10.66 44.34 10.92 44.34 11.24V15.89ZM38.74 40.85L37.4 36.82C36.92 35.41 35.72 34.37 34.26 34.11L30.37 33.4V33.1C31.05 32.71 31.64 32.19 32.1 31.56H33.28C34.24 31.56 35.03 30.78 35.03 29.82V22.85C35.03 18.69 31.63 15.31 27.46 15.31C23.29 15.31 19.89 18.69 19.89 22.85V26.92C19.89 28.04 20.69 28.98 21.75 29.19C22.08 30.86 23.12 32.27 24.55 33.1V33.4L20.66 34.11C19.2 34.37 17.99 35.41 17.52 36.82L17.29 37.52L15.31 35.54C15.08 35.31 15.08 34.95 15.31 34.72L17.61 32.43L13.29 28.12L10.7 30.71C9.93 31.48 9.5 32.5 9.5 33.59C9.5 34.67 9.93 35.69 10.7 36.46L18.56 44.31C19.33 45.08 20.35 45.5 21.44 45.5C22.53 45.5 23.55 45.08 24.3 44.33L27.14 41.74L26.25 40.85H38.74ZM33.86 29.82C33.86 30.14 33.6 30.4 33.28 30.4H32.79C32.96 30.02 33.09 29.61 33.17 29.19C33.42 29.14 33.65 29.04 33.86 28.92V29.82ZM33.28 27.92V25.92C33.63 26.12 33.86 26.49 33.86 26.92C33.86 27.35 33.63 27.72 33.28 27.92ZM21.64 27.92C21.29 27.72 21.06 27.35 21.06 26.92C21.06 26.49 21.29 26.12 21.64 25.92V27.92ZM21.64 24.02V24.68C21.43 24.73 21.24 24.81 21.06 24.92V22.85C21.06 19.33 23.93 16.47 27.46 16.47C30.99 16.47 33.86 19.33 33.86 22.85V24.92C33.68 24.81 33.49 24.73 33.28 24.68V24.02H32.7C30.98 24.02 29.36 23.35 28.14 22.13L27.46 21.45L26.78 22.13C25.56 23.35 23.94 24.02 22.22 24.02H21.64ZM22.8 28.08V25.16C24.55 25.02 26.18 24.3 27.46 23.09C28.74 24.3 30.37 25.02 32.12 25.16V28.08C32.12 28.93 31.88 29.72 31.49 30.4H27.46V31.56H30.53C29.71 32.29 28.64 32.73 27.46 32.73C24.89 32.73 22.8 30.64 22.8 28.08ZM29.21 33.62V33.65L27.46 35.39L25.71 33.65V33.62C26.27 33.79 26.85 33.89 27.46 33.89C28.07 33.89 28.65 33.79 29.21 33.62ZM18.63 37.19C18.96 36.18 19.82 35.44 20.87 35.25L24.94 34.51L27.46 37.03L29.98 34.51L34.05 35.25C35.1 35.44 35.95 36.18 36.29 37.19L37.13 39.69H25.09L22.82 37.43L20.3 39.71C20.09 39.93 19.7 39.93 19.48 39.71L18.21 38.44L18.63 37.19ZM13.29 29.76L15.96 32.43L15.33 33.06L12.66 30.39L13.29 29.76ZM23.5 43.49C22.95 44.04 22.22 44.34 21.44 44.34C20.66 44.34 19.93 44.04 19.38 43.49L11.52 35.64C10.97 35.09 10.66 34.36 10.66 33.59C10.66 32.81 10.97 32.08 11.52 31.54L11.84 31.22L14.51 33.88L14.48 33.9C13.8 34.58 13.8 35.68 14.48 36.36L18.66 40.53C18.99 40.86 19.43 41.04 19.89 41.04C20.36 41.04 20.8 40.86 21.11 40.55L21.15 40.51L23.83 43.18L23.5 43.49ZM24.69 42.4L22.02 39.73L22.78 39.04L25.45 41.7L24.69 42.4ZM36.19 11.82H43.17V12.98H36.19V11.82ZM40.85 14.15H36.19V15.31H40.85V14.15ZM42.01 14.15H43.17V15.31H42.01V14.15ZM27.46 11.24C19.86 11.24 13.31 16.49 11.6 23.81L10.5 21.98L9.5 22.57L11.55 25.97L14.96 23.93L14.36 22.94L12.78 23.88C14.43 17.18 20.46 12.4 27.46 12.4C28.99 12.4 30.5 12.63 31.94 13.08L32.29 11.97C30.73 11.49 29.11 11.24 27.46 11.24ZM41.81 20.32L45.22 22.36L44.62 23.35L42.91 22.33C43.47 23.99 43.76 25.72 43.76 27.5C43.76 31.22 42.46 34.85 40.12 37.74L39.22 37.01C41.39 34.33 42.59 30.95 42.59 27.5C42.59 25.82 42.32 24.19 41.78 22.62L40.76 24.31L39.76 23.72L41.81 20.32Z" fill="#D69026"/>
<mask id="mask0_48_793" style="mask-type:alpha" maskUnits="userSpaceOnUse" x="9" y="9" width="37" height="37">
<path fill-rule="evenodd" clip-rule="evenodd" d="M43.76 9.5H35.61C34.65 9.5 33.86 10.28 33.86 11.24V15.89C33.86 16.85 34.65 17.63 35.61 17.63H37.16L36.56 21.13L42.18 17.63H43.76C44.72 17.63 45.5 16.85 45.5 15.89V11.24C45.5 10.28 44.72 9.5 43.76 9.5ZM44.34 15.89C44.34 16.21 44.08 16.47 43.76 16.47H41.84L38.15 18.77L38.54 16.47H35.61C35.29 16.47 35.03 16.21 35.03 15.89V11.24C35.03 10.92 35.29 10.66 35.61 10.66H43.76C44.08 10.66 44.34 10.92 44.34 11.24V15.89ZM38.74 40.85L37.4 36.82C36.92 35.41 35.72 34.37 34.26 34.11L30.37 33.4V33.1C31.05 32.71 31.64 32.19 32.1 31.56H33.28C34.24 31.56 35.03 30.78 35.03 29.82V22.85C35.03 18.69 31.63 15.31 27.46 15.31C23.29 15.31 19.89 18.69 19.89 22.85V26.92C19.89 28.04 20.69 28.98 21.75 29.19C22.08 30.86 23.12 32.27 24.55 33.1V33.4L20.66 34.11C19.2 34.37 17.99 35.41 17.52 36.82L17.29 37.52L15.31 35.54C15.08 35.31 15.08 34.95 15.31 34.72L17.61 32.43L13.29 28.12L10.7 30.71C9.93 31.48 9.5 32.5 9.5 33.59C9.5 34.67 9.93 35.69 10.7 36.46L18.56 44.31C19.33 45.08 20.35 45.5 21.44 45.5C22.53 45.5 23.55 45.08 24.3 44.33L27.14 41.74L26.25 40.85H38.74ZM33.86 29.82C33.86 30.14 33.6 30.4 33.28 30.4H32.79C32.96 30.02 33.09 29.61 33.17 29.19C33.42 29.14 33.65 29.04 33.86 28.92V29.82ZM33.28 27.92V25.92C33.63 26.12 33.86 26.49 33.86 26.92C33.86 27.35 33.63 27.72 33.28 27.92ZM21.64 27.92C21.29 27.72 21.06 27.35 21.06 26.92C21.06 26.49 21.29 26.12 21.64 25.92V27.92ZM21.64 24.02V24.68C21.43 24.73 21.24 24.81 21.06 24.92V22.85C21.06 19.33 23.93 16.47 27.46 16.47C30.99 16.47 33.86 19.33 33.86 22.85V24.92C33.68 24.81 33.49 24.73 33.28 24.68V24.02H32.7C30.98 24.02 29.36 23.35 28.14 22.13L27.46 21.45L26.78 22.13C25.56 23.35 23.94 24.02 22.22 24.02H21.64ZM22.8 28.08V25.16C24.55 25.02 26.18 24.3 27.46 23.09C28.74 24.3 30.37 25.02 32.12 25.16V28.08C32.12 28.93 31.88 29.72 31.49 30.4H27.46V31.56H30.53C29.71 32.29 28.64 32.73 27.46 32.73C24.89 32.73 22.8 30.64 22.8 28.08ZM29.21 33.62V33.65L27.46 35.39L25.71 33.65V33.62C26.27 33.79 26.85 33.89 27.46 33.89C28.07 33.89 28.65 33.79 29.21 33.62ZM18.63 37.19C18.96 36.18 19.82 35.44 20.87 35.25L24.94 34.51L27.46 37.03L29.98 34.51L34.05 35.25C35.1 35.44 35.95 36.18 36.29 37.19L37.13 39.69H25.09L22.82 37.43L20.3 39.71C20.09 39.93 19.7 39.93 19.48 39.71L18.21 38.44L18.63 37.19ZM13.29 29.76L15.96 32.43L15.33 33.06L12.66 30.39L13.29 29.76ZM23.5 43.49C22.95 44.04 22.22 44.34 21.44 44.34C20.66 44.34 19.93 44.04 19.38 43.49L11.52 35.64C10.97 35.09 10.66 34.36 10.66 33.59C10.66 32.81 10.97 32.08 11.52 31.54L11.84 31.22L14.51 33.88L14.48 33.9C13.8 34.58 13.8 35.68 14.48 36.36L18.66 40.53C18.99 40.86 19.43 41.04 19.89 41.04C20.36 41.04 20.8 40.86 21.11 40.55L21.15 40.51L23.83 43.18L23.5 43.49ZM24.69 42.4L22.02 39.73L22.78 39.04L25.45 41.7L24.69 42.4ZM36.19 11.82H43.17V12.98H36.19V11.82ZM40.85 14.15H36.19V15.31H40.85V14.15ZM42.01 14.15H43.17V15.31H42.01V14.15ZM27.46 11.24C19.86 11.24 13.31 16.49 11.6 23.81L10.5 21.98L9.5 22.57L11.55 25.97L14.96 23.93L14.36 22.94L12.78 23.88C14.43 17.18 20.46 12.4 27.46 12.4C28.99 12.4 30.5 12.63 31.94 13.08L32.29 11.97C30.73 11.49 29.11 11.24 27.46 11.24ZM41.81 20.32L45.22 22.36L44.62 23.35L42.91 22.33C43.47 23.99 43.76 25.72 43.76 27.5C43.76 31.22 42.46 34.85 40.12 37.74L39.22 37.01C41.39 34.33 42.59 30.95 42.59 27.5C42.59 25.82 42.32 24.19 41.78 22.62L40.76 24.31L39.76 23.72L41.81 20.32Z" fill="white"/>
</mask>
<g mask="url(#mask0_48_793)">
<rect x="9.5" y="9.5" width="36" height="36" fill="#D39100"/>
</g>
</svg>
