<svg width="26" height="26" viewBox="0 0 26 26" fill="none" xmlns="http://www.w3.org/2000/svg">
<path d="M24.56 0.594971H1.43C0.64 0.594971 0 1.22497 0 1.99497V24.525C0 25.295 0.64 25.925 1.44 25.925H24.56C25.36 25.925 26 25.295 26 24.525V1.99497C26 1.22497 25.36 0.594971 24.56 0.594971Z" fill="#4267B2"/>
<path d="M17.95 25.9249V16.1349H21.34L21.85 12.2949H17.95V9.85493C17.95 8.74493 18.27 7.99493 19.9 7.99493H21.96V4.57493C21.6 4.52493 20.37 4.42493 18.94 4.42493C15.94 4.42493 13.89 6.20493 13.89 9.47493V12.2949H10.51V16.1349H13.89V25.9249H17.95Z" fill="white"/>
</svg>
