<svg width="30" height="24" viewBox="0 0 30 24" fill="none" xmlns="http://www.w3.org/2000/svg">
<path d="M9.43 23.975C20.76 23.975 26.95 14.975 26.95 7.17497C26.95 6.92497 26.94 6.66497 26.93 6.41497C28.13 5.58497 29.18 4.54497 30 3.36497C28.9 3.83497 27.71 4.14497 26.47 4.28497C27.74 3.55497 28.71 2.40497 29.17 1.02497C27.98 1.70497 26.67 2.19497 25.26 2.45497C24.14 1.31497 22.54 0.594971 20.77 0.594971C17.37 0.594971 14.62 3.23497 14.62 6.49497C14.62 6.95497 14.67 7.40497 14.77 7.84497C9.66 7.59497 5.12 5.24497 2.09 1.67497C1.56 2.54497 1.25 3.55497 1.25 4.64497C1.25 6.68497 2.34 8.49497 3.99 9.55497C2.98 9.52497 2.03 9.25497 1.21 8.81497C1.2 8.83497 1.2 8.86497 1.2 8.89497C1.2 11.745 3.33 14.135 6.14 14.675C5.63 14.815 5.08 14.885 4.52 14.885C4.12 14.885 3.74 14.845 3.36 14.775C4.15 17.125 6.42 18.825 9.11 18.875C7.01 20.455 4.35 21.405 1.47 21.405C0.97 21.405 0.48 21.375 0 21.325C2.72 22.995 5.96 23.975 9.43 23.975Z" fill="#008EE8"/>
</svg>
