<svg width="55" height="55" viewBox="0 0 55 55" fill="none" xmlns="http://www.w3.org/2000/svg">
<rect width="55" height="55" rx="24" fill="#E9FAF0"/>
<path fill-rule="evenodd" clip-rule="evenodd" d="M36.7349 13.4915L27.733 9.55152C27.58 9.48152 27.406 9.48152 27.253 9.55152L18.251 13.4915C18.033 13.5915 17.891 13.8015 17.891 14.0415V23.4614C17.894 25.5814 18.912 27.5614 20.628 28.8014L26.849 33.2914C27.233 33.5714 27.753 33.5714 28.137 33.2914L34.3589 28.8014C36.0739 27.5614 37.0919 25.5814 37.0949 23.4614V14.0415C37.0949 13.8015 36.9539 13.5915 36.7349 13.4915ZM35.8949 23.4614C35.8919 25.1914 35.0599 26.8214 33.6559 27.8314L27.493 32.2814L21.33 27.8314C19.926 26.8214 19.094 25.1914 19.091 23.4614V14.4315L27.493 10.7515L35.8949 14.4315V23.4614ZM27.253 12.1715L20.652 15.0615C20.433 15.1615 20.292 15.3715 20.292 15.6115V23.4614C20.294 24.8114 20.941 26.0714 22.032 26.8614L27.142 30.5414C27.352 30.7014 27.635 30.7014 27.845 30.5414L32.9549 26.8614C34.0459 26.0714 34.6929 24.8114 34.6949 23.4614V15.6115C34.6949 15.3715 34.5539 15.1615 34.3349 15.0615L27.734 12.1715C27.581 12.1015 27.407 12.1015 27.253 12.1715ZM33.4949 16.0015V23.4614C33.4929 24.4214 33.0309 25.3214 32.2529 25.8914L27.494 29.3214L22.735 25.8914C21.956 25.3214 21.494 24.4214 21.492 23.4614V16.0015L27.494 13.3815L33.4949 16.0015ZM13.1641 26.3914L14.4621 29.4214C15.473 28.7514 16.804 28.8214 17.741 29.5914C18.751 30.5214 19.913 31.2614 21.177 31.7914C21.972 32.0814 22.667 32.5814 23.177 33.2514C24.047 34.3814 24.511 35.7613 24.493 37.1813V38.3013C25.156 38.3013 25.693 38.8413 25.693 39.5013V44.3013C25.693 44.9613 25.156 45.5013 24.493 45.5013H17.891C17.228 45.5013 16.691 44.9613 16.691 44.3013V39.5013C16.692 39.2013 16.808 38.9013 17.016 38.6813L13.3181 34.9914C12.7741 34.4414 12.3321 33.8114 12.0151 33.1014L9.66309 27.9314C9.38709 27.3114 9.46509 26.5814 9.86909 26.0314C10.2721 25.4814 10.9401 25.1814 11.6191 25.2614C12.2991 25.3314 12.8871 25.7614 13.1641 26.3914ZM17.891 44.3013H24.493V39.5013H17.891V44.3013ZM23.292 37.1813C23.311 36.0313 22.94 34.9114 22.24 34.0014C21.873 33.5114 21.372 33.1414 20.797 32.9314C19.387 32.3614 18.09 31.5414 16.968 30.5114C16.407 30.0514 15.601 30.0314 15.0251 30.4814C15.2411 30.8014 15.489 31.1014 15.764 31.3814L18.506 34.1214C18.662 34.2714 18.724 34.4914 18.67 34.7014C18.615 34.9114 18.451 35.0814 18.241 35.1314C18.031 35.1914 17.808 35.1214 17.657 34.9714L14.9161 32.2314C14.2731 31.5814 13.7591 30.8314 13.4021 29.9914L12.0601 26.8614C11.9481 26.6014 11.6901 26.4314 11.4051 26.4314C11.1621 26.4314 10.9361 26.5514 10.8051 26.7514C10.6741 26.9614 10.6551 27.2214 10.7551 27.4414L13.1071 32.6114C13.3651 33.1814 13.7241 33.7014 14.1661 34.1414L18.33 38.3013H23.292V37.1813ZM22.693 41.3013H22.093C21.761 41.3013 21.493 41.5713 21.493 41.9013C21.493 42.2313 21.761 42.5013 22.093 42.5013H22.693C23.024 42.5013 23.293 42.2313 23.293 41.9013C23.293 41.5713 23.024 41.3013 22.693 41.3013ZM45.3239 27.9314L42.9729 33.1014C42.6549 33.8114 42.2139 34.4414 41.6699 34.9914L37.9709 38.6813C38.1789 38.9013 38.2959 39.2013 38.2959 39.5013V44.3013C38.2959 44.9613 37.7589 45.5013 37.0959 45.5013H30.4949C29.832 45.5013 29.294 44.9613 29.294 44.3013V39.5013C29.294 38.8413 29.832 38.3013 30.4949 38.3013V37.1813C30.4759 35.7613 30.9399 34.3814 31.8099 33.2514C32.3199 32.5814 33.0159 32.0714 33.8099 31.7914C35.0739 31.2614 36.2369 30.5214 37.2459 29.5914C38.1819 28.8114 39.5139 28.7414 40.5289 29.4114L41.8239 26.3914C42.0929 25.7514 42.6839 25.3114 43.3709 25.2314C44.0569 25.1514 44.7319 25.4514 45.1369 26.0114C45.5418 26.5714 45.6138 27.3014 45.3239 27.9314ZM30.4949 44.3013H37.0959V39.5013H30.4949V44.3013ZM31.6949 38.3013H36.6569L40.8189 34.1414C41.2609 33.7014 41.6199 33.1814 41.8779 32.6114L44.2299 27.4414C44.3299 27.2214 44.3109 26.9614 44.1799 26.7614C44.0489 26.5514 43.8229 26.4314 43.5799 26.4314C43.2949 26.4314 43.0369 26.6014 42.9249 26.8614L41.5829 29.9914C41.2259 30.8314 40.7119 31.5814 40.0689 32.2314L37.3279 34.9714C37.0919 35.1914 36.7179 35.1914 36.4859 34.9614C36.2549 34.7314 36.2519 34.3514 36.4789 34.1214L39.2209 31.3814C39.4979 31.1014 39.7469 30.8014 39.9639 30.4714C39.3859 30.0314 38.5769 30.0414 38.0169 30.5114C36.8949 31.5414 35.5979 32.3614 34.1869 32.9314C33.6139 33.1414 33.1129 33.5114 32.7469 34.0014C32.0479 34.9114 31.6769 36.0313 31.6949 37.1813V38.3013ZM32.8949 41.3013H32.2949C31.9629 41.3013 31.6949 41.5713 31.6949 41.9013C31.6949 42.2313 31.9629 42.5013 32.2949 42.5013H32.8949C33.2259 42.5013 33.4949 42.2313 33.4949 41.9013C33.4949 41.5713 33.2259 41.3013 32.8949 41.3013ZM23.412 22.3414C23.611 22.0714 23.987 22.0214 24.252 22.2214L26.145 23.6414L30.5939 16.9715C30.7129 16.7915 30.9179 16.6915 31.1319 16.7015C31.3459 16.7115 31.5369 16.8415 31.6319 17.0315C31.7269 17.2315 31.7119 17.4515 31.5929 17.6315L26.792 24.8314C26.701 24.9714 26.557 25.0614 26.394 25.0914C26.361 25.1014 26.327 25.1014 26.293 25.1014C26.163 25.1014 26.036 25.0614 25.933 24.9814L23.532 23.1814C23.267 22.9814 23.213 22.6014 23.412 22.3414Z" fill="#1ECE7A"/>
<mask id="mask0_48_485" style="mask-type:alpha" maskUnits="userSpaceOnUse" x="9" y="9" width="37" height="37">
<path fill-rule="evenodd" clip-rule="evenodd" d="M36.7349 13.4915L27.733 9.55152C27.58 9.48152 27.406 9.48152 27.253 9.55152L18.251 13.4915C18.033 13.5915 17.891 13.8015 17.891 14.0415V23.4614C17.894 25.5814 18.912 27.5614 20.628 28.8014L26.849 33.2914C27.233 33.5714 27.753 33.5714 28.137 33.2914L34.3589 28.8014C36.0739 27.5614 37.0919 25.5814 37.0949 23.4614V14.0415C37.0949 13.8015 36.9539 13.5915 36.7349 13.4915ZM35.8949 23.4614C35.8919 25.1914 35.0599 26.8214 33.6559 27.8314L27.493 32.2814L21.33 27.8314C19.926 26.8214 19.094 25.1914 19.091 23.4614V14.4315L27.493 10.7515L35.8949 14.4315V23.4614ZM27.253 12.1715L20.652 15.0615C20.433 15.1615 20.292 15.3715 20.292 15.6115V23.4614C20.294 24.8114 20.941 26.0714 22.032 26.8614L27.142 30.5414C27.352 30.7014 27.635 30.7014 27.845 30.5414L32.9549 26.8614C34.0459 26.0714 34.6929 24.8114 34.6949 23.4614V15.6115C34.6949 15.3715 34.5539 15.1615 34.3349 15.0615L27.734 12.1715C27.581 12.1015 27.407 12.1015 27.253 12.1715ZM33.4949 16.0015V23.4614C33.4929 24.4214 33.0309 25.3214 32.2529 25.8914L27.494 29.3214L22.735 25.8914C21.956 25.3214 21.494 24.4214 21.492 23.4614V16.0015L27.494 13.3815L33.4949 16.0015ZM13.1641 26.3914L14.4621 29.4214C15.473 28.7514 16.804 28.8214 17.741 29.5914C18.751 30.5214 19.913 31.2614 21.177 31.7914C21.972 32.0814 22.667 32.5814 23.177 33.2514C24.047 34.3814 24.511 35.7613 24.493 37.1813V38.3013C25.156 38.3013 25.693 38.8413 25.693 39.5013V44.3013C25.693 44.9613 25.156 45.5013 24.493 45.5013H17.891C17.228 45.5013 16.691 44.9613 16.691 44.3013V39.5013C16.692 39.2013 16.808 38.9013 17.016 38.6813L13.3181 34.9914C12.7741 34.4414 12.3321 33.8114 12.0151 33.1014L9.66309 27.9314C9.38709 27.3114 9.46509 26.5814 9.86909 26.0314C10.2721 25.4814 10.9401 25.1814 11.6191 25.2614C12.2991 25.3314 12.8871 25.7614 13.1641 26.3914ZM17.891 44.3013H24.493V39.5013H17.891V44.3013ZM23.292 37.1813C23.311 36.0313 22.94 34.9114 22.24 34.0014C21.873 33.5114 21.372 33.1414 20.797 32.9314C19.387 32.3614 18.09 31.5414 16.968 30.5114C16.407 30.0514 15.601 30.0314 15.0251 30.4814C15.2411 30.8014 15.489 31.1014 15.764 31.3814L18.506 34.1214C18.662 34.2714 18.724 34.4914 18.67 34.7014C18.615 34.9114 18.451 35.0814 18.241 35.1314C18.031 35.1914 17.808 35.1214 17.657 34.9714L14.9161 32.2314C14.2731 31.5814 13.7591 30.8314 13.4021 29.9914L12.0601 26.8614C11.9481 26.6014 11.6901 26.4314 11.4051 26.4314C11.1621 26.4314 10.9361 26.5514 10.8051 26.7514C10.6741 26.9614 10.6551 27.2214 10.7551 27.4414L13.1071 32.6114C13.3651 33.1814 13.7241 33.7014 14.1661 34.1414L18.33 38.3013H23.292V37.1813ZM22.693 41.3013H22.093C21.761 41.3013 21.493 41.5713 21.493 41.9013C21.493 42.2313 21.761 42.5013 22.093 42.5013H22.693C23.024 42.5013 23.293 42.2313 23.293 41.9013C23.293 41.5713 23.024 41.3013 22.693 41.3013ZM45.3239 27.9314L42.9729 33.1014C42.6549 33.8114 42.2139 34.4414 41.6699 34.9914L37.9709 38.6813C38.1789 38.9013 38.2959 39.2013 38.2959 39.5013V44.3013C38.2959 44.9613 37.7589 45.5013 37.0959 45.5013H30.4949C29.832 45.5013 29.294 44.9613 29.294 44.3013V39.5013C29.294 38.8413 29.832 38.3013 30.4949 38.3013V37.1813C30.4759 35.7613 30.9399 34.3814 31.8099 33.2514C32.3199 32.5814 33.0159 32.0714 33.8099 31.7914C35.0739 31.2614 36.2369 30.5214 37.2459 29.5914C38.1819 28.8114 39.5139 28.7414 40.5289 29.4114L41.8239 26.3914C42.0929 25.7514 42.6839 25.3114 43.3709 25.2314C44.0569 25.1514 44.7319 25.4514 45.1369 26.0114C45.5418 26.5714 45.6138 27.3014 45.3239 27.9314ZM30.4949 44.3013H37.0959V39.5013H30.4949V44.3013ZM31.6949 38.3013H36.6569L40.8189 34.1414C41.2609 33.7014 41.6199 33.1814 41.8779 32.6114L44.2299 27.4414C44.3299 27.2214 44.3109 26.9614 44.1799 26.7614C44.0489 26.5514 43.8229 26.4314 43.5799 26.4314C43.2949 26.4314 43.0369 26.6014 42.9249 26.8614L41.5829 29.9914C41.2259 30.8314 40.7119 31.5814 40.0689 32.2314L37.3279 34.9714C37.0919 35.1914 36.7179 35.1914 36.4859 34.9614C36.2549 34.7314 36.2519 34.3514 36.4789 34.1214L39.2209 31.3814C39.4979 31.1014 39.7469 30.8014 39.9639 30.4714C39.3859 30.0314 38.5769 30.0414 38.0169 30.5114C36.8949 31.5414 35.5979 32.3614 34.1869 32.9314C33.6139 33.1414 33.1129 33.5114 32.7469 34.0014C32.0479 34.9114 31.6769 36.0313 31.6949 37.1813V38.3013ZM32.8949 41.3013H32.2949C31.9629 41.3013 31.6949 41.5713 31.6949 41.9013C31.6949 42.2313 31.9629 42.5013 32.2949 42.5013H32.8949C33.2259 42.5013 33.4949 42.2313 33.4949 41.9013C33.4949 41.5713 33.2259 41.3013 32.8949 41.3013ZM23.412 22.3414C23.611 22.0714 23.987 22.0214 24.252 22.2214L26.145 23.6414L30.5939 16.9715C30.7129 16.7915 30.9179 16.6915 31.1319 16.7015C31.3459 16.7115 31.5369 16.8415 31.6319 17.0315C31.7269 17.2315 31.7119 17.4515 31.5929 17.6315L26.792 24.8314C26.701 24.9714 26.557 25.0614 26.394 25.0914C26.361 25.1014 26.327 25.1014 26.293 25.1014C26.163 25.1014 26.036 25.0614 25.933 24.9814L23.532 23.1814C23.267 22.9814 23.213 22.6014 23.412 22.3414Z" fill="white"/>
</mask>
<g mask="url(#mask0_48_485)">
<rect x="9.5" y="9.5" width="36" height="36" fill="#3ACF6E"/>
</g>
</svg>
