<svg width="55" height="55" viewBox="0 0 55 55" fill="none" xmlns="http://www.w3.org/2000/svg">
<rect width="55" height="55" rx="24" fill="#F4F7FD"/>
<path fill-rule="evenodd" clip-rule="evenodd" d="M41.8995 26.0269C43.7418 26.2916 45.1923 27.721 45.457 29.5421C45.7853 31.808 44.1971 33.915 41.8995 34.2432C39.6019 34.5715 37.4736 32.9938 37.1454 30.728C36.8066 28.4621 38.4054 26.3551 40.703 26.0269V24.9469C40.703 22.6281 38.9454 20.7435 36.796 20.7435C34.7102 20.7435 32.9631 22.5752 32.8996 24.8199V36.4773C32.8996 40.8714 29.5326 44.4395 25.4033 44.4395C21.2633 44.4395 17.8963 40.8714 17.8963 36.4773V35.4714C17.0281 35.4714 16.0964 34.8467 16.0964 33.0997V31.6068C12.2529 30.6327 9.5 27.361 9.5 23.6552V22.4164H10.6965V14.7083C10.707 13.2683 11.7553 12.0401 13.1952 11.7965C13.3646 11.2883 13.7458 10.8754 14.254 10.6848C15.1858 10.3248 16.234 10.7695 16.594 11.6907C16.9646 12.6118 16.5093 13.6495 15.5775 14.0094C14.6458 14.3694 13.5976 13.9142 13.227 13.0036C12.4435 13.2048 11.9035 13.9036 11.9035 14.7083V22.4164H13.7035V23.6763C13.7458 25.741 15.1434 27.5304 17.1446 28.1022C18.2246 28.441 19.3681 28.441 20.4481 28.1022C22.4492 27.5304 23.8468 25.741 23.8998 23.6763V22.4164H25.0962L25.075 14.7083C25.0644 13.9142 24.535 13.2259 23.7621 13.0036C23.5715 13.4906 23.1586 13.8718 22.661 14.0306C21.7186 14.3377 20.7128 13.8295 20.4057 12.8977C20.0986 11.966 20.6069 10.9707 21.5492 10.6636C22.4915 10.3566 23.4974 10.8648 23.8045 11.7965C25.2233 12.0507 26.2609 13.2683 26.2715 14.6977L26.3032 22.4164H27.4997V23.6552C27.4997 27.361 24.7468 30.6327 20.9033 31.6068V33.0997C20.9033 34.8467 19.9716 35.4714 19.1034 35.4714V36.4773C19.1034 40.2149 21.9304 43.2537 25.4033 43.2537C28.8761 43.2537 31.7032 40.2149 31.7032 36.4773V24.7881H31.7349H31.7032C31.7773 21.8976 34.0643 19.547 36.796 19.547C39.6124 19.547 41.8995 21.9717 41.8995 24.9469V26.0269ZM21.4963 12.3365C21.4963 12.6648 21.7716 12.9295 22.0998 12.9295C22.428 12.9295 22.7033 12.6648 22.7033 12.3365C22.7033 12.0083 22.428 11.7436 22.0998 11.7436C21.7716 11.7436 21.4963 12.0083 21.4963 12.3365ZM15.5034 12.3365C15.5034 12.0083 15.2281 11.7436 14.8999 11.7436C14.5717 11.7436 14.2964 12.0083 14.2964 12.3365C14.2964 12.6648 14.5717 12.9295 14.8999 12.9295C15.2281 12.9295 15.5034 12.6648 15.5034 12.3365ZM10.6965 23.6022V23.6552C10.6965 26.9586 13.2693 29.8598 16.8163 30.5586C17.0916 30.6115 17.3669 30.6539 17.6528 30.6856C18.4893 30.7703 19.3469 30.728 20.1834 30.5586C23.7304 29.8598 26.3032 26.9586 26.3032 23.6552V23.6022H25.0962V23.6763C25.0539 26.2492 23.3174 28.5045 20.808 29.2245C19.5057 29.6374 18.0975 29.6374 16.7846 29.2245C14.2752 28.5045 12.5494 26.2492 12.4964 23.6763V23.6022H10.6965ZM17.3034 33.0997C17.3034 33.4491 17.3563 34.2856 17.8963 34.2856H19.1034C19.6434 34.2856 19.6963 33.4491 19.6963 33.0997V31.8397C19.6751 31.8397 19.6434 31.8397 19.6222 31.8503C19.601 31.8503 19.5798 31.8503 19.5587 31.8503C19.5163 31.8609 19.474 31.8609 19.4316 31.8609C19.4104 31.8609 19.3892 31.8715 19.3681 31.8715C19.0928 31.8927 18.8069 31.9139 18.5104 31.9139H18.4893C18.1928 31.9139 17.9069 31.8927 17.621 31.8715C17.6105 31.8715 17.5999 31.8609 17.5787 31.8609C17.5363 31.8609 17.494 31.8609 17.441 31.8503C17.4305 31.8503 17.4093 31.8503 17.3881 31.8503C17.3563 31.8397 17.3246 31.8397 17.3034 31.8397V33.0997ZM38.2995 30.1351C38.2995 31.7656 39.6442 33.0997 41.2959 33.0997C42.9583 33.0997 44.2924 31.7656 44.303 30.1351C44.303 28.4939 42.9583 27.1704 41.2959 27.1704C39.6442 27.1704 38.2995 28.4939 38.2995 30.1351ZM39.496 30.1351C39.496 29.1504 40.3007 28.3563 41.2959 28.3563C42.2912 28.3563 43.0959 29.1504 43.0959 30.1351C43.0959 31.1092 42.2912 31.9139 41.2959 31.9139C40.3007 31.9139 39.496 31.1092 39.496 30.1351ZM40.703 30.1351C40.703 30.4633 40.9677 30.728 41.2959 30.728C41.6348 30.728 41.8995 30.4633 41.8995 30.1351C41.8995 29.8068 41.6348 29.5421 41.2959 29.5421C40.9677 29.5421 40.703 29.8068 40.703 30.1351Z" fill="#2682D6"/>
<mask id="mask0_48_521" style="mask-type:alpha" maskUnits="userSpaceOnUse" x="9" y="10" width="37" height="35">
<path fill-rule="evenodd" clip-rule="evenodd" d="M41.8995 26.0269C43.7418 26.2916 45.1923 27.721 45.457 29.5421C45.7853 31.808 44.1971 33.915 41.8995 34.2432C39.6019 34.5715 37.4736 32.9938 37.1454 30.728C36.8066 28.4621 38.4054 26.3551 40.703 26.0269V24.9469C40.703 22.6281 38.9454 20.7435 36.796 20.7435C34.7102 20.7435 32.9631 22.5752 32.8996 24.8199V36.4773C32.8996 40.8714 29.5326 44.4395 25.4033 44.4395C21.2633 44.4395 17.8963 40.8714 17.8963 36.4773V35.4714C17.0281 35.4714 16.0964 34.8467 16.0964 33.0997V31.6068C12.2529 30.6327 9.5 27.361 9.5 23.6552V22.4164H10.6965V14.7083C10.707 13.2683 11.7553 12.0401 13.1952 11.7965C13.3646 11.2883 13.7458 10.8754 14.254 10.6848C15.1858 10.3248 16.234 10.7695 16.594 11.6907C16.9646 12.6118 16.5093 13.6495 15.5775 14.0094C14.6458 14.3694 13.5976 13.9142 13.227 13.0036C12.4435 13.2048 11.9035 13.9036 11.9035 14.7083V22.4164H13.7035V23.6763C13.7458 25.741 15.1434 27.5304 17.1446 28.1022C18.2246 28.441 19.3681 28.441 20.4481 28.1022C22.4492 27.5304 23.8468 25.741 23.8998 23.6763V22.4164H25.0962L25.075 14.7083C25.0644 13.9142 24.535 13.2259 23.7621 13.0036C23.5715 13.4906 23.1586 13.8718 22.661 14.0306C21.7186 14.3377 20.7128 13.8295 20.4057 12.8977C20.0986 11.966 20.6069 10.9707 21.5492 10.6636C22.4915 10.3566 23.4974 10.8648 23.8045 11.7965C25.2233 12.0507 26.2609 13.2683 26.2715 14.6977L26.3032 22.4164H27.4997V23.6552C27.4997 27.361 24.7468 30.6327 20.9033 31.6068V33.0997C20.9033 34.8467 19.9716 35.4714 19.1034 35.4714V36.4773C19.1034 40.2149 21.9304 43.2537 25.4033 43.2537C28.8761 43.2537 31.7032 40.2149 31.7032 36.4773V24.7881H31.7349H31.7032C31.7773 21.8976 34.0643 19.547 36.796 19.547C39.6124 19.547 41.8995 21.9717 41.8995 24.9469V26.0269ZM21.4963 12.3365C21.4963 12.6648 21.7716 12.9295 22.0998 12.9295C22.428 12.9295 22.7033 12.6648 22.7033 12.3365C22.7033 12.0083 22.428 11.7436 22.0998 11.7436C21.7716 11.7436 21.4963 12.0083 21.4963 12.3365ZM15.5034 12.3365C15.5034 12.0083 15.2281 11.7436 14.8999 11.7436C14.5717 11.7436 14.2964 12.0083 14.2964 12.3365C14.2964 12.6648 14.5717 12.9295 14.8999 12.9295C15.2281 12.9295 15.5034 12.6648 15.5034 12.3365ZM10.6965 23.6022V23.6552C10.6965 26.9586 13.2693 29.8598 16.8163 30.5586C17.0916 30.6115 17.3669 30.6539 17.6528 30.6856C18.4893 30.7703 19.3469 30.728 20.1834 30.5586C23.7304 29.8598 26.3032 26.9586 26.3032 23.6552V23.6022H25.0962V23.6763C25.0539 26.2492 23.3174 28.5045 20.808 29.2245C19.5057 29.6374 18.0975 29.6374 16.7846 29.2245C14.2752 28.5045 12.5494 26.2492 12.4964 23.6763V23.6022H10.6965ZM17.3034 33.0997C17.3034 33.4491 17.3563 34.2856 17.8963 34.2856H19.1034C19.6434 34.2856 19.6963 33.4491 19.6963 33.0997V31.8397C19.6751 31.8397 19.6434 31.8397 19.6222 31.8503C19.601 31.8503 19.5798 31.8503 19.5587 31.8503C19.5163 31.8609 19.474 31.8609 19.4316 31.8609C19.4104 31.8609 19.3892 31.8715 19.3681 31.8715C19.0928 31.8927 18.8069 31.9139 18.5104 31.9139H18.4893C18.1928 31.9139 17.9069 31.8927 17.621 31.8715C17.6105 31.8715 17.5999 31.8609 17.5787 31.8609C17.5363 31.8609 17.494 31.8609 17.441 31.8503C17.4305 31.8503 17.4093 31.8503 17.3881 31.8503C17.3563 31.8397 17.3246 31.8397 17.3034 31.8397V33.0997ZM38.2995 30.1351C38.2995 31.7656 39.6442 33.0997 41.2959 33.0997C42.9583 33.0997 44.2924 31.7656 44.303 30.1351C44.303 28.4939 42.9583 27.1704 41.2959 27.1704C39.6442 27.1704 38.2995 28.4939 38.2995 30.1351ZM39.496 30.1351C39.496 29.1504 40.3007 28.3563 41.2959 28.3563C42.2912 28.3563 43.0959 29.1504 43.0959 30.1351C43.0959 31.1092 42.2912 31.9139 41.2959 31.9139C40.3007 31.9139 39.496 31.1092 39.496 30.1351ZM40.703 30.1351C40.703 30.4633 40.9677 30.728 41.2959 30.728C41.6348 30.728 41.8995 30.4633 41.8995 30.1351C41.8995 29.8068 41.6348 29.5421 41.2959 29.5421C40.9677 29.5421 40.703 29.8068 40.703 30.1351Z" fill="white"/>
</mask>
<g mask="url(#mask0_48_521)">
<rect x="9.5" y="9.5" width="36" height="36" fill="#2E80DD"/>
</g>
</svg>
