<svg width="55" height="55" viewBox="0 0 55 55" fill="none" xmlns="http://www.w3.org/2000/svg">
<rect width="55" height="55" rx="24" fill="#FDF6E4"/>
<path fill-rule="evenodd" clip-rule="evenodd" d="M10.5293 39.1683H18.1498L20.0698 42.5829C20.2063 42.8171 20.4307 42.9927 20.6951 43.0707C20.9585 43.139 21.2395 43.1 21.4756 42.9634L22.5156 42.3488C23.0941 42.0073 23.9741 42.4463 23.9741 43.178V44.4463C23.9741 45.022 24.4346 45.5 25.0034 45.5H29.1185C29.6873 45.5 30.1478 45.022 30.1478 44.4463V43.2171C30.1478 42.4561 31.0093 41.9976 31.6659 42.3878L32.6463 42.9634C33.138 43.2561 33.7673 43.0805 34.0522 42.5829L35.9722 39.1683H43.5927C44.1615 39.1683 44.622 38.7 44.622 38.1146V10.5537C44.622 9.97805 44.1615 9.5 43.5927 9.5H31.1771C29.4961 9.5 28.0005 10.3293 27.061 11.6171C26.1215 10.3293 24.6259 9.5 22.9449 9.5H10.5293C9.96049 9.5 9.5 9.97805 9.5 10.5537V38.1146C9.5 38.7 9.96049 39.1683 10.5293 39.1683ZM28.0902 14.778C28.0902 13.0317 29.4746 11.6073 31.1771 11.6073H42.5644V37.061H35.2932C35.2141 37.061 35.1371 37.0707 35.0629 37.0902L34.6551 36.8463C34.0327 36.4756 34.0561 35.5195 34.6844 35.1488L35.7332 34.5244C36.2249 34.2415 36.3946 33.5878 36.1098 33.0902L34.0522 29.4317C33.7683 28.9341 33.139 28.7585 32.6463 29.0512L31.6717 29.6268C31.0151 30.0171 30.1478 29.5683 30.1478 28.8073V27.5683C30.1478 26.9927 29.6873 26.5146 29.1185 26.5146H28.0902V14.778ZM28.0902 28.8073V28.622H26.0317V28.8073C26.0317 31.1585 23.4629 32.661 21.461 31.4707L21.338 31.4024L20.3088 33.2268L20.4073 33.2854C22.3859 34.4561 22.5644 37.4512 20.5537 38.6415L20.3088 38.7878L21.338 40.6122L21.4863 40.5244C23.46 39.3537 26.0317 40.8463 26.0317 43.1781V43.3927H28.0902V43.2171C28.0902 40.8073 30.6863 39.3732 32.6951 40.5537L32.7839 40.6122L33.8132 38.7878L33.6259 38.6707C31.621 37.4902 31.6668 34.4951 33.6561 33.3244L33.8132 33.2268L32.7839 31.4024L32.701 31.4512C30.6844 32.6415 28.0902 31.1976 28.0902 28.8073ZM11.5576 11.6073H22.9449C24.6473 11.6073 26.0317 13.0317 26.0317 14.778V26.5146H25.0034C24.4346 26.5146 23.9741 26.9927 23.9741 27.5683V28.8073C23.9741 29.539 23.1283 30.0268 22.4902 29.6463L21.4756 29.0512C20.9839 28.7585 20.3537 28.9341 20.0698 29.4317L18.0122 33.0902C17.7283 33.5878 17.8961 34.2415 18.3888 34.5244L19.379 35.1098C20.0102 35.4902 20.1322 36.4561 19.5244 36.8171L19.059 37.0902C18.9849 37.0707 18.9088 37.061 18.8288 37.061H11.5576V11.6073ZM23.9741 36.0073C23.9741 37.7537 25.3585 39.1683 27.061 39.1683C28.7634 39.1683 30.1478 37.7537 30.1478 36.0073C30.1478 34.261 28.7634 32.8463 27.061 32.8463C25.3585 32.8463 23.9741 34.261 23.9741 36.0073ZM27.061 34.9537C27.6288 34.9537 28.0902 35.422 28.0902 36.0073C28.0902 36.5829 27.6288 37.061 27.061 37.061C26.4932 37.061 26.0317 36.5829 26.0317 36.0073C26.0317 35.422 26.4932 34.9537 27.061 34.9537ZM14.6444 18.0073H22.9449C23.5137 18.0073 23.9741 17.539 23.9741 16.9537C23.9741 16.3683 23.5137 15.9 22.9449 15.9H14.6444C14.0766 15.9 13.6161 16.3683 13.6161 16.9537C13.6161 17.539 14.0766 18.0073 14.6444 18.0073ZM22.9449 20.1146C23.5137 20.1146 23.9741 20.5927 23.9741 21.1683C23.9741 21.7537 23.5137 22.2317 22.9449 22.2317H14.6444C14.0766 22.2317 13.6161 21.7537 13.6161 21.1683C13.6161 20.5927 14.0766 20.1146 14.6444 20.1146H22.9449ZM31.1771 22.2317H39.4776C40.0454 22.2317 40.5059 21.7537 40.5059 21.1683C40.5059 20.5927 40.0454 20.1146 39.4776 20.1146H31.1771C30.6083 20.1146 30.1478 20.5927 30.1478 21.1683C30.1478 21.7537 30.6083 22.2317 31.1771 22.2317ZM39.4776 18.0073H31.1771C30.6083 18.0073 30.1478 17.539 30.1478 16.9537C30.1478 16.3683 30.6083 15.9 31.1771 15.9H39.4776C40.0454 15.9 40.5059 16.3683 40.5059 16.9537C40.5059 17.539 40.0454 18.0073 39.4776 18.0073Z" fill="#D69026"/>
<mask id="mask0_11_2575" style="mask-type:alpha" maskUnits="userSpaceOnUse" x="9" y="9" width="36" height="37">
<path fill-rule="evenodd" clip-rule="evenodd" d="M10.5293 39.1683H18.1498L20.0698 42.5829C20.2063 42.8171 20.4307 42.9927 20.6951 43.0707C20.9585 43.139 21.2395 43.1 21.4756 42.9634L22.5156 42.3488C23.0941 42.0073 23.9741 42.4463 23.9741 43.178V44.4463C23.9741 45.022 24.4346 45.5 25.0034 45.5H29.1185C29.6873 45.5 30.1478 45.022 30.1478 44.4463V43.2171C30.1478 42.4561 31.0093 41.9976 31.6659 42.3878L32.6463 42.9634C33.138 43.2561 33.7673 43.0805 34.0522 42.5829L35.9722 39.1683H43.5927C44.1615 39.1683 44.622 38.7 44.622 38.1146V10.5537C44.622 9.97805 44.1615 9.5 43.5927 9.5H31.1771C29.4961 9.5 28.0005 10.3293 27.061 11.6171C26.1215 10.3293 24.6259 9.5 22.9449 9.5H10.5293C9.96049 9.5 9.5 9.97805 9.5 10.5537V38.1146C9.5 38.7 9.96049 39.1683 10.5293 39.1683ZM28.0902 14.778C28.0902 13.0317 29.4746 11.6073 31.1771 11.6073H42.5644V37.061H35.2932C35.2141 37.061 35.1371 37.0707 35.0629 37.0902L34.6551 36.8463C34.0327 36.4756 34.0561 35.5195 34.6844 35.1488L35.7332 34.5244C36.2249 34.2415 36.3946 33.5878 36.1098 33.0902L34.0522 29.4317C33.7683 28.9341 33.139 28.7585 32.6463 29.0512L31.6717 29.6268C31.0151 30.0171 30.1478 29.5683 30.1478 28.8073V27.5683C30.1478 26.9927 29.6873 26.5146 29.1185 26.5146H28.0902V14.778ZM28.0902 28.8073V28.622H26.0317V28.8073C26.0317 31.1585 23.4629 32.661 21.461 31.4707L21.338 31.4024L20.3088 33.2268L20.4073 33.2854C22.3859 34.4561 22.5644 37.4512 20.5537 38.6415L20.3088 38.7878L21.338 40.6122L21.4863 40.5244C23.46 39.3537 26.0317 40.8463 26.0317 43.1781V43.3927H28.0902V43.2171C28.0902 40.8073 30.6863 39.3732 32.6951 40.5537L32.7839 40.6122L33.8132 38.7878L33.6259 38.6707C31.621 37.4902 31.6668 34.4951 33.6561 33.3244L33.8132 33.2268L32.7839 31.4024L32.701 31.4512C30.6844 32.6415 28.0902 31.1976 28.0902 28.8073ZM11.5576 11.6073H22.9449C24.6473 11.6073 26.0317 13.0317 26.0317 14.778V26.5146H25.0034C24.4346 26.5146 23.9741 26.9927 23.9741 27.5683V28.8073C23.9741 29.539 23.1283 30.0268 22.4902 29.6463L21.4756 29.0512C20.9839 28.7585 20.3537 28.9341 20.0698 29.4317L18.0122 33.0902C17.7283 33.5878 17.8961 34.2415 18.3888 34.5244L19.379 35.1098C20.0102 35.4902 20.1322 36.4561 19.5244 36.8171L19.059 37.0902C18.9849 37.0707 18.9088 37.061 18.8288 37.061H11.5576V11.6073ZM23.9741 36.0073C23.9741 37.7537 25.3585 39.1683 27.061 39.1683C28.7634 39.1683 30.1478 37.7537 30.1478 36.0073C30.1478 34.261 28.7634 32.8463 27.061 32.8463C25.3585 32.8463 23.9741 34.261 23.9741 36.0073ZM27.061 34.9537C27.6288 34.9537 28.0902 35.422 28.0902 36.0073C28.0902 36.5829 27.6288 37.061 27.061 37.061C26.4932 37.061 26.0317 36.5829 26.0317 36.0073C26.0317 35.422 26.4932 34.9537 27.061 34.9537ZM14.6444 18.0073H22.9449C23.5137 18.0073 23.9741 17.539 23.9741 16.9537C23.9741 16.3683 23.5137 15.9 22.9449 15.9H14.6444C14.0766 15.9 13.6161 16.3683 13.6161 16.9537C13.6161 17.539 14.0766 18.0073 14.6444 18.0073ZM22.9449 20.1146C23.5137 20.1146 23.9741 20.5927 23.9741 21.1683C23.9741 21.7537 23.5137 22.2317 22.9449 22.2317H14.6444C14.0766 22.2317 13.6161 21.7537 13.6161 21.1683C13.6161 20.5927 14.0766 20.1146 14.6444 20.1146H22.9449ZM31.1771 22.2317H39.4776C40.0454 22.2317 40.5059 21.7537 40.5059 21.1683C40.5059 20.5927 40.0454 20.1146 39.4776 20.1146H31.1771C30.6083 20.1146 30.1478 20.5927 30.1478 21.1683C30.1478 21.7537 30.6083 22.2317 31.1771 22.2317ZM39.4776 18.0073H31.1771C30.6083 18.0073 30.1478 17.539 30.1478 16.9537C30.1478 16.3683 30.6083 15.9 31.1771 15.9H39.4776C40.0454 15.9 40.5059 16.3683 40.5059 16.9537C40.5059 17.539 40.0454 18.0073 39.4776 18.0073Z" fill="white"/>
</mask>
<g mask="url(#mask0_11_2575)">
<rect x="9.5" y="9.5" width="36" height="36" fill="#D39100"/>
</g>
</svg>
