<svg width="55" height="55" viewBox="0 0 55 55" fill="none" xmlns="http://www.w3.org/2000/svg">
<rect width="55" height="55" rx="24" fill="#FCF3F4"/>
<path fill-rule="evenodd" clip-rule="evenodd" d="M27.5 9.5C22.2776 9.5 17.3449 11.9878 14.0551 16.0073V14.8463C14.0551 14.261 13.5946 13.7927 13.0259 13.7927C12.4571 13.7927 11.9966 14.261 11.9966 14.8463V19.3244C11.9966 20.3293 13.2649 20.4756 13.0259 20.378C13.0454 20.378 13.0659 20.378 13.0854 20.378H13.0893L17.2054 20.1146C17.7732 20.0756 18.2044 19.578 18.1683 19.0024C18.1332 18.4171 17.6385 17.978 17.0785 18.0073L14.9937 18.1439C17.8815 14.1146 22.5537 11.6073 27.5 11.6073C36.0112 11.6073 43.0034 18.778 43.0034 27.5C43.0034 28.0854 43.4629 28.5537 44.0317 28.5537C44.6005 28.5537 45.061 28.0854 45.061 27.5C45.061 17.6171 37.1459 9.5 27.5 9.5ZM34.6756 27.2561C34.5937 26.9049 34.338 26.6122 33.9995 26.5049L28.9507 24.778L32.5361 17.4317C32.7615 16.9634 32.6268 16.4073 32.2181 16.0951C31.8073 15.8024 31.2444 15.8415 30.8883 16.2122L20.5985 26.7585C20.3468 27.0122 20.2434 27.3829 20.3244 27.7439C20.4073 28.0951 20.662 28.3878 21.0005 28.5049L26.0493 30.222L22.4639 37.5781C22.2385 38.0366 22.3732 38.6024 22.782 38.9049C23.1917 39.1976 23.7537 39.1585 24.1117 38.7878L34.4015 28.2415C34.6541 27.9878 34.7576 27.6171 34.6756 27.2561ZM37.7946 34.8854L41.9107 34.622C42.461 34.5927 43.0034 35.0902 43.0034 35.6756V40.1537C43.0034 40.739 42.5429 41.2073 41.9741 41.2073C41.4054 41.2073 40.9449 40.739 40.9449 40.1537V38.9927C37.6551 43.0122 32.7224 45.5 27.5 45.5C17.8541 45.5 9.93903 37.3829 9.93903 27.5C9.93903 26.9146 10.3995 26.4463 10.9683 26.4463C11.5371 26.4463 11.9966 26.9146 11.9966 27.5C11.9966 36.222 18.9888 43.3927 27.5 43.3927C32.4463 43.3927 37.1185 40.8854 40.0063 36.8561L37.9215 36.9927C37.3732 37.0219 36.8668 36.5829 36.8317 35.9976C36.7956 35.422 37.2268 34.9244 37.7946 34.8854Z" fill="#D62642"/>
<mask id="mask0_11_2581" style="mask-type:alpha" maskUnits="userSpaceOnUse" x="9" y="9" width="37" height="37">
<path fill-rule="evenodd" clip-rule="evenodd" d="M27.5 9.5C22.2776 9.5 17.3449 11.9878 14.0551 16.0073V14.8463C14.0551 14.261 13.5946 13.7927 13.0259 13.7927C12.4571 13.7927 11.9966 14.261 11.9966 14.8463V19.3244C11.9966 20.3293 13.2649 20.4756 13.0259 20.378C13.0454 20.378 13.0659 20.378 13.0854 20.378H13.0893L17.2054 20.1146C17.7732 20.0756 18.2044 19.578 18.1683 19.0024C18.1332 18.4171 17.6385 17.978 17.0785 18.0073L14.9937 18.1439C17.8815 14.1146 22.5537 11.6073 27.5 11.6073C36.0112 11.6073 43.0034 18.778 43.0034 27.5C43.0034 28.0854 43.4629 28.5537 44.0317 28.5537C44.6005 28.5537 45.061 28.0854 45.061 27.5C45.061 17.6171 37.1459 9.5 27.5 9.5ZM34.6756 27.2561C34.5937 26.9049 34.338 26.6122 33.9995 26.5049L28.9507 24.778L32.5361 17.4317C32.7615 16.9634 32.6268 16.4073 32.2181 16.0951C31.8073 15.8024 31.2444 15.8415 30.8883 16.2122L20.5985 26.7585C20.3468 27.0122 20.2434 27.3829 20.3244 27.7439C20.4073 28.0951 20.662 28.3878 21.0005 28.5049L26.0493 30.222L22.4639 37.5781C22.2385 38.0366 22.3732 38.6024 22.782 38.9049C23.1917 39.1976 23.7537 39.1585 24.1117 38.7878L34.4015 28.2415C34.6541 27.9878 34.7576 27.6171 34.6756 27.2561ZM37.7946 34.8854L41.9107 34.622C42.461 34.5927 43.0034 35.0902 43.0034 35.6756V40.1537C43.0034 40.739 42.5429 41.2073 41.9741 41.2073C41.4054 41.2073 40.9449 40.739 40.9449 40.1537V38.9927C37.6551 43.0122 32.7224 45.5 27.5 45.5C17.8541 45.5 9.93903 37.3829 9.93903 27.5C9.93903 26.9146 10.3995 26.4463 10.9683 26.4463C11.5371 26.4463 11.9966 26.9146 11.9966 27.5C11.9966 36.222 18.9888 43.3927 27.5 43.3927C32.4463 43.3927 37.1185 40.8854 40.0063 36.8561L37.9215 36.9927C37.3732 37.0219 36.8668 36.5829 36.8317 35.9976C36.7956 35.422 37.2268 34.9244 37.7946 34.8854Z" fill="white"/>
</mask>
<g mask="url(#mask0_11_2581)">
<rect x="9.5" y="9.5" width="36" height="36" fill="#D12940"/>
</g>
</svg>
