<svg width="55" height="55" viewBox="0 0 55 55" fill="none" xmlns="http://www.w3.org/2000/svg">
<rect width="55" height="55" rx="24" fill="#FCF3F4"/>
<path fill-rule="evenodd" clip-rule="evenodd" d="M26.7683 10.2512C26.7683 9.84146 27.0961 9.5 27.5 9.5C27.9039 9.5 28.2317 9.84146 28.2317 10.2512V13.2561C28.2317 13.6659 27.9039 13.9976 27.5 13.9976C27.0961 13.9976 26.7683 13.6659 26.7683 13.2561V10.2512ZM36.2805 21.5H39.2073C39.6112 21.5 39.939 21.8415 39.939 22.2512C39.939 22.661 39.6112 23.0024 39.2073 23.0024H36.2805C35.8766 23.0024 35.5488 22.661 35.5488 22.2512C35.5488 21.8415 35.8766 21.5 36.2805 21.5ZM18.7195 21.5H15.7927C15.3888 21.5 15.061 21.8415 15.061 22.2512C15.061 22.661 15.3888 23.0024 15.7927 23.0024H18.7195C19.1234 23.0024 19.4512 22.661 19.4512 22.2512C19.4512 21.8415 19.1234 21.5 18.7195 21.5ZM35.261 13.2366C35.5459 12.9439 36.0102 12.9439 36.2951 13.2366C36.581 13.5293 36.581 14.0073 36.2951 14.3L34.2259 16.4171C34.0844 16.5634 33.8971 16.6415 33.7098 16.6415C33.5224 16.6415 33.3351 16.5634 33.1917 16.4171C32.9059 16.1244 32.9059 15.6463 33.1917 15.3537L35.261 13.2366ZM21.8093 15.3537L19.74 13.2366C19.4541 12.9439 18.9898 12.9439 18.7049 13.2366C18.42 13.5293 18.42 14.0073 18.7049 14.3L20.7722 16.4171C20.9166 16.5634 21.1029 16.6415 21.2902 16.6415C21.4785 16.6415 21.6649 16.5634 21.8083 16.4171C22.0941 16.1244 22.0941 15.6463 21.8093 15.3537ZM30.9137 30.5146C32.379 29.5195 34.3517 29.861 35.4054 31.3049C36.0385 32.1732 35.98 33.3732 35.2678 34.1732L29.3449 40.7976C29.2776 40.8756 29.2073 40.9439 29.1351 41.0219C29.4561 41.1 29.6951 41.3927 29.6951 41.7439V44.7488C29.6951 45.1585 29.3673 45.5 28.9634 45.5C28.5595 45.5 28.2317 45.1585 28.2317 44.7488V42.4951H19.4512V44.7488C19.4512 45.1585 19.1234 45.5 18.7195 45.5C18.3156 45.5 17.9878 45.1585 17.9878 44.7488V41.7439C17.9878 41.3341 18.3156 40.9927 18.7195 40.9927H18.9751C17.4815 39.7537 16.5244 37.861 16.5244 35.7439V29.7537C16.5244 28.5049 17.5088 27.5 18.7195 27.5C19.0044 27.5 19.2766 27.5585 19.5293 27.6561C19.7819 26.7 20.6366 25.9976 21.6463 25.9976C21.9322 25.9976 22.2044 26.0561 22.4551 26.1537C22.7088 25.2073 23.5634 24.5049 24.5732 24.5049C24.8298 24.5049 25.0766 24.5439 25.3049 24.6317V22.2512C25.3049 21.0122 26.2893 19.9976 27.5 19.9976C28.7107 19.9976 29.6951 21.0122 29.6951 22.2512V31.3439L30.9137 30.5146ZM28.2649 39.7829C27.5868 40.5439 26.6259 40.9829 25.6219 40.9927H23.0463C20.2512 40.9634 17.9878 38.622 17.9878 35.7439V29.7537C17.9878 29.3341 18.3156 29.0024 18.7195 29.0024C19.1234 29.0024 19.4512 29.3341 19.4512 29.7537V30.4951C19.4512 30.9146 19.779 31.2463 20.1829 31.2463C20.5868 31.2463 20.9146 30.9146 20.9146 30.4951V28.2512C20.9146 27.8317 21.2424 27.5 21.6463 27.5C22.0502 27.5 22.378 27.8317 22.378 28.2512V30.4951C22.378 30.9146 22.7059 31.2463 23.1098 31.2463C23.5137 31.2463 23.8415 30.9146 23.8415 30.4951V26.7488C23.8415 26.339 24.1693 25.9976 24.5732 25.9976C24.9771 25.9976 25.3049 26.339 25.3049 26.7488V30.4951C25.3049 30.9146 25.6327 31.2463 26.0366 31.2463C26.4405 31.2463 26.7683 30.9146 26.7683 30.4951V22.2512C26.7683 21.8415 27.0961 21.5 27.5 21.5C27.9039 21.5 28.2317 21.8415 28.2317 22.2512V32.7488C28.2317 33.022 28.3829 33.2756 28.62 33.4122C28.8571 33.539 29.1468 33.5195 29.3702 33.3732L31.7263 31.7634C32.5449 31.2073 33.6454 31.3927 34.2346 32.2024C34.4454 32.4854 34.4259 32.8951 34.1878 33.1585L28.2649 39.7829ZM22.378 22.2512C22.378 19.3537 24.6756 17.0024 27.5 17.0024C30.3244 17.0024 32.622 19.3537 32.622 22.2512C32.622 22.661 32.2941 23.0024 31.8902 23.0024C31.4863 23.0024 31.1585 22.661 31.1585 22.2512C31.1585 20.1829 29.5166 18.5049 27.5 18.5049C25.4834 18.5049 23.8415 20.1829 23.8415 22.2512C23.8415 22.661 23.5137 23.0024 23.1098 23.0024C22.7059 23.0024 22.378 22.661 22.378 22.2512Z" fill="#D62642"/>
<mask id="mask0_11_2557" style="mask-type:alpha" maskUnits="userSpaceOnUse" x="15" y="9" width="25" height="37">
<path fill-rule="evenodd" clip-rule="evenodd" d="M26.7683 10.2512C26.7683 9.84146 27.0961 9.5 27.5 9.5C27.9039 9.5 28.2317 9.84146 28.2317 10.2512V13.2561C28.2317 13.6659 27.9039 13.9976 27.5 13.9976C27.0961 13.9976 26.7683 13.6659 26.7683 13.2561V10.2512ZM36.2805 21.5H39.2073C39.6112 21.5 39.939 21.8415 39.939 22.2512C39.939 22.661 39.6112 23.0024 39.2073 23.0024H36.2805C35.8766 23.0024 35.5488 22.661 35.5488 22.2512C35.5488 21.8415 35.8766 21.5 36.2805 21.5ZM18.7195 21.5H15.7927C15.3888 21.5 15.061 21.8415 15.061 22.2512C15.061 22.661 15.3888 23.0024 15.7927 23.0024H18.7195C19.1234 23.0024 19.4512 22.661 19.4512 22.2512C19.4512 21.8415 19.1234 21.5 18.7195 21.5ZM35.261 13.2366C35.5459 12.9439 36.0102 12.9439 36.2951 13.2366C36.581 13.5293 36.581 14.0073 36.2951 14.3L34.2259 16.4171C34.0844 16.5634 33.8971 16.6415 33.7098 16.6415C33.5224 16.6415 33.3351 16.5634 33.1917 16.4171C32.9059 16.1244 32.9059 15.6463 33.1917 15.3537L35.261 13.2366ZM21.8093 15.3537L19.74 13.2366C19.4541 12.9439 18.9898 12.9439 18.7049 13.2366C18.42 13.5293 18.42 14.0073 18.7049 14.3L20.7722 16.4171C20.9166 16.5634 21.1029 16.6415 21.2902 16.6415C21.4785 16.6415 21.6649 16.5634 21.8083 16.4171C22.0941 16.1244 22.0941 15.6463 21.8093 15.3537ZM30.9137 30.5146C32.379 29.5195 34.3517 29.861 35.4054 31.3049C36.0385 32.1732 35.98 33.3732 35.2678 34.1732L29.3449 40.7976C29.2776 40.8756 29.2073 40.9439 29.1351 41.0219C29.4561 41.1 29.6951 41.3927 29.6951 41.7439V44.7488C29.6951 45.1585 29.3673 45.5 28.9634 45.5C28.5595 45.5 28.2317 45.1585 28.2317 44.7488V42.4951H19.4512V44.7488C19.4512 45.1585 19.1234 45.5 18.7195 45.5C18.3156 45.5 17.9878 45.1585 17.9878 44.7488V41.7439C17.9878 41.3341 18.3156 40.9927 18.7195 40.9927H18.9751C17.4815 39.7537 16.5244 37.861 16.5244 35.7439V29.7537C16.5244 28.5049 17.5088 27.5 18.7195 27.5C19.0044 27.5 19.2766 27.5585 19.5293 27.6561C19.7819 26.7 20.6366 25.9976 21.6463 25.9976C21.9322 25.9976 22.2044 26.0561 22.4551 26.1537C22.7088 25.2073 23.5634 24.5049 24.5732 24.5049C24.8298 24.5049 25.0766 24.5439 25.3049 24.6317V22.2512C25.3049 21.0122 26.2893 19.9976 27.5 19.9976C28.7107 19.9976 29.6951 21.0122 29.6951 22.2512V31.3439L30.9137 30.5146ZM28.2649 39.7829C27.5868 40.5439 26.6259 40.9829 25.6219 40.9927H23.0463C20.2512 40.9634 17.9878 38.622 17.9878 35.7439V29.7537C17.9878 29.3341 18.3156 29.0024 18.7195 29.0024C19.1234 29.0024 19.4512 29.3341 19.4512 29.7537V30.4951C19.4512 30.9146 19.779 31.2463 20.1829 31.2463C20.5868 31.2463 20.9146 30.9146 20.9146 30.4951V28.2512C20.9146 27.8317 21.2424 27.5 21.6463 27.5C22.0502 27.5 22.378 27.8317 22.378 28.2512V30.4951C22.378 30.9146 22.7059 31.2463 23.1098 31.2463C23.5137 31.2463 23.8415 30.9146 23.8415 30.4951V26.7488C23.8415 26.339 24.1693 25.9976 24.5732 25.9976C24.9771 25.9976 25.3049 26.339 25.3049 26.7488V30.4951C25.3049 30.9146 25.6327 31.2463 26.0366 31.2463C26.4405 31.2463 26.7683 30.9146 26.7683 30.4951V22.2512C26.7683 21.8415 27.0961 21.5 27.5 21.5C27.9039 21.5 28.2317 21.8415 28.2317 22.2512V32.7488C28.2317 33.022 28.3829 33.2756 28.62 33.4122C28.8571 33.539 29.1468 33.5195 29.3702 33.3732L31.7263 31.7634C32.5449 31.2073 33.6454 31.3927 34.2346 32.2024C34.4454 32.4854 34.4259 32.8951 34.1878 33.1585L28.2649 39.7829ZM22.378 22.2512C22.378 19.3537 24.6756 17.0024 27.5 17.0024C30.3244 17.0024 32.622 19.3537 32.622 22.2512C32.622 22.661 32.2941 23.0024 31.8902 23.0024C31.4863 23.0024 31.1585 22.661 31.1585 22.2512C31.1585 20.1829 29.5166 18.5049 27.5 18.5049C25.4834 18.5049 23.8415 20.1829 23.8415 22.2512C23.8415 22.661 23.5137 23.0024 23.1098 23.0024C22.7059 23.0024 22.378 22.661 22.378 22.2512Z" fill="white"/>
</mask>
<g mask="url(#mask0_11_2557)">
<rect x="9.5" y="9.5" width="36" height="36" fill="#D12940"/>
</g>
</svg>
