<svg width="55" height="56" viewBox="0 0 55 56" fill="none" xmlns="http://www.w3.org/2000/svg">
<rect y="0.5" width="55" height="55" rx="24" fill="#FCF3F4"/>
<path fill-rule="evenodd" clip-rule="evenodd" d="M36.7349 13.9913L27.733 10.0513C27.58 9.98128 27.406 9.98128 27.253 10.0513L18.251 13.9913C18.033 14.0913 17.891 14.3013 17.891 14.5412V23.9612C17.894 26.0812 18.912 28.0612 20.628 29.3012L26.849 33.7911C27.233 34.0711 27.753 34.0711 28.137 33.7911L34.3589 29.3012C36.0739 28.0612 37.0919 26.0812 37.0949 23.9612V14.5412C37.0949 14.3013 36.9539 14.0913 36.7349 13.9913ZM35.8949 23.9612C35.8919 25.6912 35.0599 27.3212 33.6559 28.3312L27.493 32.7811L21.33 28.3312C19.926 27.3212 19.094 25.6912 19.091 23.9612V14.9312L27.493 11.2513L35.8949 14.9312V23.9612ZM27.253 12.6713L20.652 15.5612C20.433 15.6612 20.292 15.8712 20.292 16.1112V23.9612C20.294 25.3112 20.941 26.5712 22.032 27.3612L27.142 31.0411C27.352 31.2011 27.635 31.2011 27.845 31.0411L32.9549 27.3612C34.0459 26.5712 34.6929 25.3112 34.6949 23.9612V16.1112C34.6949 15.8712 34.5539 15.6612 34.3349 15.5612L27.734 12.6713C27.581 12.6013 27.407 12.6013 27.253 12.6713ZM33.4949 16.5012V23.9612C33.4929 24.9212 33.0309 25.8212 32.2529 26.3912L27.494 29.8211L22.735 26.3912C21.956 25.8212 21.494 24.9212 21.492 23.9612V16.5012L27.494 13.8813L33.4949 16.5012ZM13.1641 26.8912L14.4621 29.9211C15.473 29.2512 16.804 29.3211 17.741 30.0911C18.751 31.0211 19.913 31.7611 21.177 32.2911C21.972 32.5811 22.667 33.0811 23.177 33.7511C24.047 34.8811 24.511 36.2611 24.493 37.6811V38.8011C25.156 38.8011 25.693 39.3411 25.693 40.0011V44.801C25.693 45.461 25.156 46.001 24.493 46.001H17.891C17.228 46.001 16.691 45.461 16.691 44.801V40.0011C16.692 39.7011 16.808 39.4011 17.016 39.1811L13.3181 35.4911C12.7741 34.9411 12.3321 34.3111 12.0151 33.6011L9.66309 28.4312C9.38709 27.8112 9.46509 27.0812 9.86909 26.5312C10.2721 25.9812 10.9401 25.6812 11.6191 25.7612C12.2991 25.8312 12.8871 26.2612 13.1641 26.8912ZM17.891 44.801H24.493V40.0011H17.891V44.801ZM23.292 37.6811C23.311 36.5311 22.94 35.4111 22.24 34.5011C21.873 34.0111 21.372 33.6411 20.797 33.4311C19.387 32.8611 18.09 32.0411 16.968 31.0111C16.407 30.5511 15.601 30.5311 15.0251 30.9811C15.2411 31.3011 15.489 31.6011 15.764 31.8811L18.506 34.6211C18.662 34.7711 18.724 34.9911 18.67 35.2011C18.615 35.4111 18.451 35.5811 18.241 35.6311C18.031 35.6911 17.808 35.6211 17.657 35.4711L14.9161 32.7311C14.2731 32.0811 13.7591 31.3311 13.4021 30.4911L12.0601 27.3612C11.9481 27.1012 11.6901 26.9312 11.4051 26.9312C11.1621 26.9312 10.9361 27.0512 10.8051 27.2512C10.6741 27.4612 10.6551 27.7212 10.7551 27.9412L13.1071 33.1111C13.3651 33.6811 13.7241 34.2011 14.1661 34.6411L18.33 38.8011H23.292V37.6811ZM22.693 41.8011H22.093C21.761 41.8011 21.493 42.0711 21.493 42.4011C21.493 42.7311 21.761 43.0011 22.093 43.0011H22.693C23.024 43.0011 23.293 42.7311 23.293 42.4011C23.293 42.0711 23.024 41.8011 22.693 41.8011ZM45.3239 28.4312L42.9729 33.6011C42.6549 34.3111 42.2139 34.9411 41.6699 35.4911L37.9709 39.1811C38.1789 39.4011 38.2959 39.7011 38.2959 40.0011V44.801C38.2959 45.461 37.7589 46.001 37.0959 46.001H30.4949C29.832 46.001 29.294 45.461 29.294 44.801V40.0011C29.294 39.3411 29.832 38.8011 30.4949 38.8011V37.6811C30.4759 36.2611 30.9399 34.8811 31.8099 33.7511C32.3199 33.0811 33.0159 32.5711 33.8099 32.2911C35.0739 31.7611 36.2369 31.0211 37.2459 30.0911C38.1819 29.3112 39.5139 29.2412 40.5289 29.9111L41.8239 26.8912C42.0929 26.2512 42.6839 25.8112 43.3709 25.7312C44.0569 25.6512 44.7319 25.9512 45.1369 26.5112C45.5418 27.0712 45.6138 27.8012 45.3239 28.4312ZM30.4949 44.801H37.0959V40.0011H30.4949V44.801ZM31.6949 38.8011H36.6569L40.8189 34.6411C41.2609 34.2011 41.6199 33.6811 41.8779 33.1111L44.2299 27.9412C44.3299 27.7212 44.3109 27.4612 44.1799 27.2612C44.0489 27.0512 43.8229 26.9312 43.5799 26.9312C43.2949 26.9312 43.0369 27.1012 42.9249 27.3612L41.5829 30.4911C41.2259 31.3311 40.7119 32.0811 40.0689 32.7311L37.3279 35.4711C37.0919 35.6911 36.7179 35.6911 36.4859 35.4611C36.2549 35.2311 36.2519 34.8511 36.4789 34.6211L39.2209 31.8811C39.4979 31.6011 39.7469 31.3011 39.9639 30.9711C39.3859 30.5311 38.5769 30.5411 38.0169 31.0111C36.8949 32.0411 35.5979 32.8611 34.1869 33.4311C33.6139 33.6411 33.1129 34.0111 32.7469 34.5011C32.0479 35.4111 31.6769 36.5311 31.6949 37.6811V38.8011ZM32.8949 41.8011H32.2949C31.9629 41.8011 31.6949 42.0711 31.6949 42.4011C31.6949 42.7311 31.9629 43.0011 32.2949 43.0011H32.8949C33.2259 43.0011 33.4949 42.7311 33.4949 42.4011C33.4949 42.0711 33.2259 41.8011 32.8949 41.8011ZM23.412 22.8412C23.611 22.5712 23.987 22.5212 24.252 22.7212L26.145 24.1412L30.5939 17.4712C30.7129 17.2912 30.9179 17.1912 31.1319 17.2012C31.3459 17.2112 31.5369 17.3412 31.6319 17.5312C31.7269 17.7312 31.7119 17.9512 31.5929 18.1312L26.792 25.3312C26.701 25.4712 26.557 25.5612 26.394 25.5912C26.361 25.6012 26.327 25.6012 26.293 25.6012C26.163 25.6012 26.036 25.5612 25.933 25.4812L23.532 23.6812C23.267 23.4812 23.213 23.1012 23.412 22.8412Z" fill="#1ECE7A"/>
<mask id="mask0_11_2605" style="mask-type:alpha" maskUnits="userSpaceOnUse" x="9" y="9" width="37" height="38">
<path fill-rule="evenodd" clip-rule="evenodd" d="M36.7349 13.9913L27.733 10.0513C27.58 9.98128 27.406 9.98128 27.253 10.0513L18.251 13.9913C18.033 14.0913 17.891 14.3013 17.891 14.5412V23.9612C17.894 26.0812 18.912 28.0612 20.628 29.3012L26.849 33.7911C27.233 34.0711 27.753 34.0711 28.137 33.7911L34.3589 29.3012C36.0739 28.0612 37.0919 26.0812 37.0949 23.9612V14.5412C37.0949 14.3013 36.9539 14.0913 36.7349 13.9913ZM35.8949 23.9612C35.8919 25.6912 35.0599 27.3212 33.6559 28.3312L27.493 32.7811L21.33 28.3312C19.926 27.3212 19.094 25.6912 19.091 23.9612V14.9312L27.493 11.2513L35.8949 14.9312V23.9612ZM27.253 12.6713L20.652 15.5612C20.433 15.6612 20.292 15.8712 20.292 16.1112V23.9612C20.294 25.3112 20.941 26.5712 22.032 27.3612L27.142 31.0411C27.352 31.2011 27.635 31.2011 27.845 31.0411L32.9549 27.3612C34.0459 26.5712 34.6929 25.3112 34.6949 23.9612V16.1112C34.6949 15.8712 34.5539 15.6612 34.3349 15.5612L27.734 12.6713C27.581 12.6013 27.407 12.6013 27.253 12.6713ZM33.4949 16.5012V23.9612C33.4929 24.9212 33.0309 25.8212 32.2529 26.3912L27.494 29.8211L22.735 26.3912C21.956 25.8212 21.494 24.9212 21.492 23.9612V16.5012L27.494 13.8813L33.4949 16.5012ZM13.1641 26.8912L14.4621 29.9211C15.473 29.2512 16.804 29.3211 17.741 30.0911C18.751 31.0211 19.913 31.7611 21.177 32.2911C21.972 32.5811 22.667 33.0811 23.177 33.7511C24.047 34.8811 24.511 36.2611 24.493 37.6811V38.8011C25.156 38.8011 25.693 39.3411 25.693 40.0011V44.801C25.693 45.461 25.156 46.001 24.493 46.001H17.891C17.228 46.001 16.691 45.461 16.691 44.801V40.0011C16.692 39.7011 16.808 39.4011 17.016 39.1811L13.3181 35.4911C12.7741 34.9411 12.3321 34.3111 12.0151 33.6011L9.66309 28.4312C9.38709 27.8112 9.46509 27.0812 9.86909 26.5312C10.2721 25.9812 10.9401 25.6812 11.6191 25.7612C12.2991 25.8312 12.8871 26.2612 13.1641 26.8912ZM17.891 44.801H24.493V40.0011H17.891V44.801ZM23.292 37.6811C23.311 36.5311 22.94 35.4111 22.24 34.5011C21.873 34.0111 21.372 33.6411 20.797 33.4311C19.387 32.8611 18.09 32.0411 16.968 31.0111C16.407 30.5511 15.601 30.5311 15.0251 30.9811C15.2411 31.3011 15.489 31.6011 15.764 31.8811L18.506 34.6211C18.662 34.7711 18.724 34.9911 18.67 35.2011C18.615 35.4111 18.451 35.5811 18.241 35.6311C18.031 35.6911 17.808 35.6211 17.657 35.4711L14.9161 32.7311C14.2731 32.0811 13.7591 31.3311 13.4021 30.4911L12.0601 27.3612C11.9481 27.1012 11.6901 26.9312 11.4051 26.9312C11.1621 26.9312 10.9361 27.0512 10.8051 27.2512C10.6741 27.4612 10.6551 27.7212 10.7551 27.9412L13.1071 33.1111C13.3651 33.6811 13.7241 34.2011 14.1661 34.6411L18.33 38.8011H23.292V37.6811ZM22.693 41.8011H22.093C21.761 41.8011 21.493 42.0711 21.493 42.4011C21.493 42.7311 21.761 43.0011 22.093 43.0011H22.693C23.024 43.0011 23.293 42.7311 23.293 42.4011C23.293 42.0711 23.024 41.8011 22.693 41.8011ZM45.3239 28.4312L42.9729 33.6011C42.6549 34.3111 42.2139 34.9411 41.6699 35.4911L37.9709 39.1811C38.1789 39.4011 38.2959 39.7011 38.2959 40.0011V44.801C38.2959 45.461 37.7589 46.001 37.0959 46.001H30.4949C29.832 46.001 29.294 45.461 29.294 44.801V40.0011C29.294 39.3411 29.832 38.8011 30.4949 38.8011V37.6811C30.4759 36.2611 30.9399 34.8811 31.8099 33.7511C32.3199 33.0811 33.0159 32.5711 33.8099 32.2911C35.0739 31.7611 36.2369 31.0211 37.2459 30.0911C38.1819 29.3112 39.5139 29.2412 40.5289 29.9111L41.8239 26.8912C42.0929 26.2512 42.6839 25.8112 43.3709 25.7312C44.0569 25.6512 44.7319 25.9512 45.1369 26.5112C45.5418 27.0712 45.6138 27.8012 45.3239 28.4312ZM30.4949 44.801H37.0959V40.0011H30.4949V44.801ZM31.6949 38.8011H36.6569L40.8189 34.6411C41.2609 34.2011 41.6199 33.6811 41.8779 33.1111L44.2299 27.9412C44.3299 27.7212 44.3109 27.4612 44.1799 27.2612C44.0489 27.0512 43.8229 26.9312 43.5799 26.9312C43.2949 26.9312 43.0369 27.1012 42.9249 27.3612L41.5829 30.4911C41.2259 31.3311 40.7119 32.0811 40.0689 32.7311L37.3279 35.4711C37.0919 35.6911 36.7179 35.6911 36.4859 35.4611C36.2549 35.2311 36.2519 34.8511 36.4789 34.6211L39.2209 31.8811C39.4979 31.6011 39.7469 31.3011 39.9639 30.9711C39.3859 30.5311 38.5769 30.5411 38.0169 31.0111C36.8949 32.0411 35.5979 32.8611 34.1869 33.4311C33.6139 33.6411 33.1129 34.0111 32.7469 34.5011C32.0479 35.4111 31.6769 36.5311 31.6949 37.6811V38.8011ZM32.8949 41.8011H32.2949C31.9629 41.8011 31.6949 42.0711 31.6949 42.4011C31.6949 42.7311 31.9629 43.0011 32.2949 43.0011H32.8949C33.2259 43.0011 33.4949 42.7311 33.4949 42.4011C33.4949 42.0711 33.2259 41.8011 32.8949 41.8011ZM23.412 22.8412C23.611 22.5712 23.987 22.5212 24.252 22.7212L26.145 24.1412L30.5939 17.4712C30.7129 17.2912 30.9179 17.1912 31.1319 17.2012C31.3459 17.2112 31.5369 17.3412 31.6319 17.5312C31.7269 17.7312 31.7119 17.9512 31.5929 18.1312L26.792 25.3312C26.701 25.4712 26.557 25.5612 26.394 25.5912C26.361 25.6012 26.327 25.6012 26.293 25.6012C26.163 25.6012 26.036 25.5612 25.933 25.4812L23.532 23.6812C23.267 23.4812 23.213 23.1012 23.412 22.8412Z" fill="white"/>
</mask>
<g mask="url(#mask0_11_2605)">
<rect x="9.5" y="10" width="36" height="36" fill="#D12940"/>
</g>
</svg>
