<svg width="60" height="60" viewBox="0 0 60 60" fill="none" xmlns="http://www.w3.org/2000/svg">
<circle cx="30" cy="30" r="30" fill="white"/>
<path fill-rule="evenodd" clip-rule="evenodd" d="M34.8667 12.6602C34.5917 12.3802 34.1467 12.3802 33.8727 12.6602L32.8777 13.6502C32.6037 13.9302 32.6037 14.3702 32.8777 14.6502C33.0157 14.7802 33.1957 14.8502 33.3747 14.8502C33.5547 14.8502 33.7347 14.7802 33.8727 14.6502L34.8667 13.6502C35.1407 13.3802 35.1417 12.9302 34.8667 12.6602ZM39.8377 12.6602C40.1127 12.3802 40.5577 12.3802 40.8328 12.6602C41.1077 12.9302 41.1077 13.3802 40.8328 13.6502C40.5577 13.9302 40.1127 13.9302 39.8377 13.6502C39.5637 13.3802 39.5637 12.9302 39.8377 12.6602ZM45.8047 13.6502C45.5298 13.3802 45.0847 13.3802 44.8097 13.6502C44.5357 13.9302 44.5357 14.3702 44.8097 14.6502C45.0847 14.9202 45.5298 14.9202 45.8047 14.6502C46.0788 14.3702 46.0788 13.9302 45.8047 13.6502ZM47.7938 17.6302C47.5187 17.3502 47.0737 17.3502 46.7988 17.6302C46.5247 17.9002 46.5247 18.3502 46.7988 18.6202C47.0737 18.9002 47.5187 18.9002 47.7938 18.6202C48.0687 18.3502 48.0687 17.9002 47.7938 17.6302ZM16.2167 43.3302C15.9417 43.0602 15.4967 43.0602 15.2218 43.3302C14.9477 43.6102 14.9477 44.0502 15.2218 44.3302C15.4967 44.6002 15.9417 44.6002 16.2167 44.3302C16.4907 44.0502 16.4907 43.6102 16.2167 43.3302ZM20.9397 37.5202C21.2107 37.2402 21.6558 37.2402 21.9338 37.5102C22.2118 37.7802 22.2167 38.2302 21.9457 38.5002L18.2118 42.3302C18.0738 42.4702 17.8907 42.5402 17.7078 42.5402C17.5308 42.5402 17.3538 42.4802 17.2168 42.3402C16.9398 42.0702 16.9338 41.6302 17.2048 41.3502L20.9397 37.5202ZM44.8107 28.5702L42.3298 26.0902L42.3188 26.0802L39.3468 23.1002L39.3358 23.0902L36.3638 20.1202L36.3538 20.1102L33.3808 17.1402L33.3698 17.1302L30.8888 14.6502C30.7577 14.5102 30.5788 14.4402 30.3918 14.4402C30.2057 14.4402 30.0268 14.5102 29.8948 14.6502L21.9408 22.6002L20.9447 23.6002C19.5747 24.9702 19.5747 27.2002 20.9458 28.5702L22.9348 30.5602C23.0677 30.6902 23.1407 30.8702 23.1407 31.0502C23.1407 31.2402 23.0677 31.4202 22.9348 31.5502L21.9537 32.5302L13.4358 40.1602H13.4348C13.3628 40.2202 13.2968 40.2902 13.2337 40.3502C11.5888 41.9902 11.5888 44.6702 13.2337 46.3202C14.0287 47.1102 15.0888 47.5502 16.2168 47.5502C17.3447 47.5502 18.4037 47.1102 19.1997 46.3202C19.2638 46.2502 19.3268 46.1802 19.3928 46.1102H19.3938H19.3948L26.9288 37.5002L27.9067 36.5202C28.1807 36.2502 28.6268 36.2502 28.9008 36.5202L30.8897 38.5102C31.5537 39.1702 32.4357 39.5402 33.3748 39.5402C34.3137 39.5402 35.1968 39.1702 35.8608 38.5102L36.8557 37.5202L44.8097 29.5602C45.0848 29.2902 45.0847 28.8402 44.8107 28.5702ZM18.3368 45.1802C18.2908 45.2302 18.2478 45.2802 18.2057 45.3202C17.6758 45.8502 16.9688 46.1402 16.2168 46.1402C15.4638 46.1402 14.7578 45.8502 14.2278 45.3202C13.1318 44.2202 13.1318 42.4402 14.2278 41.3402C14.2717 41.3002 14.3177 41.2602 14.3698 41.2102H14.3718H14.3738L22.4108 34.0102L25.4527 37.0502L18.3368 45.1802ZM34.8668 37.5202C34.4678 37.9102 33.9387 38.1302 33.3757 38.1302C32.8118 38.1302 32.2827 37.9102 31.8837 37.5202L29.8948 35.5302C29.0728 34.7102 27.7347 34.7102 26.9117 35.5302L26.4148 36.0202L23.4318 33.0402L23.9288 32.5402C24.3278 32.1502 24.5468 31.6202 24.5468 31.0502C24.5468 30.4902 24.3267 29.9602 23.9288 29.5602L21.9397 27.5702C21.1178 26.7502 21.1178 25.4102 21.9397 24.5902L22.4377 24.0902L35.3638 37.0202L34.8668 37.5202ZM36.3588 36.0202L23.4318 23.1002L30.3918 16.1402L31.8838 17.6302L28.4038 21.1102C28.1287 21.3802 28.1287 21.8302 28.4038 22.1002C28.5408 22.2402 28.7208 22.3102 28.9008 22.3102C29.0807 22.3102 29.2607 22.2402 29.3978 22.1002L32.8778 18.6202L34.8668 20.6102L31.3868 24.0902C31.1117 24.3702 31.1117 24.8102 31.3868 25.0902C31.5238 25.2202 31.7038 25.2902 31.8838 25.2902C32.0637 25.2902 32.2437 25.2202 32.3808 25.0902L35.8618 21.6102L37.8498 23.6002L34.3698 27.0802C34.0947 27.3502 34.0947 27.8002 34.3698 28.0702C34.5068 28.2102 34.6868 28.2802 34.8668 28.2802C35.0468 28.2802 35.2267 28.2102 35.3638 28.0702L38.8438 24.5902L40.8328 26.5802L37.3528 30.0602C37.0777 30.3302 37.0777 30.7802 37.3528 31.0502C37.4897 31.1902 37.6698 31.2602 37.8498 31.2602C38.0298 31.2602 38.2098 31.1902 38.3468 31.0502L41.8278 27.5702L43.3188 29.0602L36.3588 36.0202ZM37.8497 14.6502C38.1248 14.3702 38.5697 14.3702 38.8447 14.6502C39.1187 14.9202 39.1187 15.3702 38.8447 15.6402L36.8557 17.6302C36.7188 17.7702 36.5387 17.8402 36.3587 17.8402C36.1788 17.8402 35.9988 17.7702 35.8617 17.6302C35.5868 17.3502 35.5868 16.9102 35.8617 16.6302L37.8497 14.6502ZM42.8217 15.6402C43.0957 15.3702 43.5407 15.3702 43.8158 15.6402C44.0907 15.9202 44.0907 16.3602 43.8158 16.6302L39.8377 20.6102C39.7007 20.7502 39.5207 20.8202 39.3407 20.8202C39.1607 20.8202 38.9807 20.7502 38.8437 20.6102C38.5697 20.3402 38.5697 19.8902 38.8437 19.6202L42.8217 15.6402ZM45.8048 19.6202C45.5308 19.3402 45.0858 19.3402 44.8108 19.6202L41.8278 22.6002C41.5528 22.8802 41.5528 23.3202 41.8278 23.6002C41.9648 23.7302 42.1448 23.8002 42.3248 23.8002C42.5048 23.8002 42.6848 23.7302 42.8218 23.6002L45.8048 20.6102C46.0798 20.3402 46.0798 19.8902 45.8048 19.6202ZM45.8048 24.5902C46.0798 24.3202 46.5247 24.3202 46.7988 24.5902C47.0737 24.8602 47.0737 25.3102 46.7988 25.5802L45.8048 26.5802C45.6678 26.7202 45.4878 26.7802 45.3078 26.7802C45.1278 26.7802 44.9478 26.7202 44.8107 26.5802C44.5358 26.3002 44.5358 25.8602 44.8107 25.5802L45.8048 24.5902Z" fill="#1C57C9"/>
<mask id="mask0_83_1402" style="mask-type:alpha" maskUnits="userSpaceOnUse" x="12" y="12" width="36" height="36">
<path fill-rule="evenodd" clip-rule="evenodd" d="M34.8667 12.6602C34.5917 12.3802 34.1467 12.3802 33.8727 12.6602L32.8777 13.6502C32.6037 13.9302 32.6037 14.3702 32.8777 14.6502C33.0157 14.7802 33.1957 14.8502 33.3747 14.8502C33.5547 14.8502 33.7347 14.7802 33.8727 14.6502L34.8667 13.6502C35.1407 13.3802 35.1417 12.9302 34.8667 12.6602ZM39.8377 12.6602C40.1127 12.3802 40.5577 12.3802 40.8328 12.6602C41.1077 12.9302 41.1077 13.3802 40.8328 13.6502C40.5577 13.9302 40.1127 13.9302 39.8377 13.6502C39.5637 13.3802 39.5637 12.9302 39.8377 12.6602ZM45.8047 13.6502C45.5298 13.3802 45.0847 13.3802 44.8097 13.6502C44.5357 13.9302 44.5357 14.3702 44.8097 14.6502C45.0847 14.9202 45.5298 14.9202 45.8047 14.6502C46.0788 14.3702 46.0788 13.9302 45.8047 13.6502ZM47.7938 17.6302C47.5187 17.3502 47.0737 17.3502 46.7988 17.6302C46.5247 17.9002 46.5247 18.3502 46.7988 18.6202C47.0737 18.9002 47.5187 18.9002 47.7938 18.6202C48.0687 18.3502 48.0687 17.9002 47.7938 17.6302ZM16.2167 43.3302C15.9417 43.0602 15.4967 43.0602 15.2218 43.3302C14.9477 43.6102 14.9477 44.0502 15.2218 44.3302C15.4967 44.6002 15.9417 44.6002 16.2167 44.3302C16.4907 44.0502 16.4907 43.6102 16.2167 43.3302ZM20.9397 37.5202C21.2107 37.2402 21.6558 37.2402 21.9338 37.5102C22.2118 37.7802 22.2167 38.2302 21.9457 38.5002L18.2118 42.3302C18.0738 42.4702 17.8907 42.5402 17.7078 42.5402C17.5308 42.5402 17.3538 42.4802 17.2168 42.3402C16.9398 42.0702 16.9338 41.6302 17.2048 41.3502L20.9397 37.5202ZM44.8107 28.5702L42.3298 26.0902L42.3188 26.0802L39.3468 23.1002L39.3358 23.0902L36.3638 20.1202L36.3538 20.1102L33.3808 17.1402L33.3698 17.1302L30.8888 14.6502C30.7577 14.5102 30.5788 14.4402 30.3918 14.4402C30.2057 14.4402 30.0268 14.5102 29.8948 14.6502L21.9408 22.6002L20.9447 23.6002C19.5747 24.9702 19.5747 27.2002 20.9458 28.5702L22.9348 30.5602C23.0677 30.6902 23.1407 30.8702 23.1407 31.0502C23.1407 31.2402 23.0677 31.4202 22.9348 31.5502L21.9537 32.5302L13.4358 40.1602H13.4348C13.3628 40.2202 13.2968 40.2902 13.2337 40.3502C11.5888 41.9902 11.5888 44.6702 13.2337 46.3202C14.0287 47.1102 15.0888 47.5502 16.2168 47.5502C17.3447 47.5502 18.4037 47.1102 19.1997 46.3202C19.2638 46.2502 19.3268 46.1802 19.3928 46.1102H19.3938H19.3948L26.9288 37.5002L27.9067 36.5202C28.1807 36.2502 28.6268 36.2502 28.9008 36.5202L30.8897 38.5102C31.5537 39.1702 32.4357 39.5402 33.3748 39.5402C34.3137 39.5402 35.1968 39.1702 35.8608 38.5102L36.8557 37.5202L44.8097 29.5602C45.0848 29.2902 45.0847 28.8402 44.8107 28.5702ZM18.3368 45.1802C18.2908 45.2302 18.2478 45.2802 18.2057 45.3202C17.6758 45.8502 16.9688 46.1402 16.2168 46.1402C15.4638 46.1402 14.7578 45.8502 14.2278 45.3202C13.1318 44.2202 13.1318 42.4402 14.2278 41.3402C14.2717 41.3002 14.3177 41.2602 14.3698 41.2102H14.3718H14.3738L22.4108 34.0102L25.4527 37.0502L18.3368 45.1802ZM34.8668 37.5202C34.4678 37.9102 33.9387 38.1302 33.3757 38.1302C32.8118 38.1302 32.2827 37.9102 31.8837 37.5202L29.8948 35.5302C29.0728 34.7102 27.7347 34.7102 26.9117 35.5302L26.4148 36.0202L23.4318 33.0402L23.9288 32.5402C24.3278 32.1502 24.5468 31.6202 24.5468 31.0502C24.5468 30.4902 24.3267 29.9602 23.9288 29.5602L21.9397 27.5702C21.1178 26.7502 21.1178 25.4102 21.9397 24.5902L22.4377 24.0902L35.3638 37.0202L34.8668 37.5202ZM36.3588 36.0202L23.4318 23.1002L30.3918 16.1402L31.8838 17.6302L28.4038 21.1102C28.1287 21.3802 28.1287 21.8302 28.4038 22.1002C28.5408 22.2402 28.7208 22.3102 28.9008 22.3102C29.0807 22.3102 29.2607 22.2402 29.3978 22.1002L32.8778 18.6202L34.8668 20.6102L31.3868 24.0902C31.1117 24.3702 31.1117 24.8102 31.3868 25.0902C31.5238 25.2202 31.7038 25.2902 31.8838 25.2902C32.0637 25.2902 32.2437 25.2202 32.3808 25.0902L35.8618 21.6102L37.8498 23.6002L34.3698 27.0802C34.0947 27.3502 34.0947 27.8002 34.3698 28.0702C34.5068 28.2102 34.6868 28.2802 34.8668 28.2802C35.0468 28.2802 35.2267 28.2102 35.3638 28.0702L38.8438 24.5902L40.8328 26.5802L37.3528 30.0602C37.0777 30.3302 37.0777 30.7802 37.3528 31.0502C37.4897 31.1902 37.6698 31.2602 37.8498 31.2602C38.0298 31.2602 38.2098 31.1902 38.3468 31.0502L41.8278 27.5702L43.3188 29.0602L36.3588 36.0202ZM37.8497 14.6502C38.1248 14.3702 38.5697 14.3702 38.8447 14.6502C39.1187 14.9202 39.1187 15.3702 38.8447 15.6402L36.8557 17.6302C36.7188 17.7702 36.5387 17.8402 36.3587 17.8402C36.1788 17.8402 35.9988 17.7702 35.8617 17.6302C35.5868 17.3502 35.5868 16.9102 35.8617 16.6302L37.8497 14.6502ZM42.8217 15.6402C43.0957 15.3702 43.5407 15.3702 43.8158 15.6402C44.0907 15.9202 44.0907 16.3602 43.8158 16.6302L39.8377 20.6102C39.7007 20.7502 39.5207 20.8202 39.3407 20.8202C39.1607 20.8202 38.9807 20.7502 38.8437 20.6102C38.5697 20.3402 38.5697 19.8902 38.8437 19.6202L42.8217 15.6402ZM45.8048 19.6202C45.5308 19.3402 45.0858 19.3402 44.8108 19.6202L41.8278 22.6002C41.5528 22.8802 41.5528 23.3202 41.8278 23.6002C41.9648 23.7302 42.1448 23.8002 42.3248 23.8002C42.5048 23.8002 42.6848 23.7302 42.8218 23.6002L45.8048 20.6102C46.0798 20.3402 46.0798 19.8902 45.8048 19.6202ZM45.8048 24.5902C46.0798 24.3202 46.5247 24.3202 46.7988 24.5902C47.0737 24.8602 47.0737 25.3102 46.7988 25.5802L45.8048 26.5802C45.6678 26.7202 45.4878 26.7802 45.3078 26.7802C45.1278 26.7802 44.9478 26.7202 44.8107 26.5802C44.5358 26.3002 44.5358 25.8602 44.8107 25.5802L45.8048 24.5902Z" fill="white"/>
</mask>
<g mask="url(#mask0_83_1402)">
<rect x="12" y="12" width="36" height="36" fill="#2053D1"/>
</g>
</svg>
