<svg width="60" height="60" viewBox="0 0 60 60" fill="none" xmlns="http://www.w3.org/2000/svg">
<circle cx="30" cy="30" r="30" fill="white"/>
<path fill-rule="evenodd" clip-rule="evenodd" d="M47.865 33.7805L47.869 33.7905L47.873 33.8005C47.957 34.0105 48 34.2405 48 34.4605V47.2205C48 47.5505 47.731 47.8205 47.4 47.8205H12.6C12.269 47.8205 12 47.5505 12 47.2205V34.4605C11.999 34.0305 12.153 33.6205 12.433 33.2905L15.384 29.8505C15.727 29.4505 16.226 29.2205 16.752 29.2205H19.2V22.0205C19.204 18.3805 22.157 15.4205 25.8 15.4205H38.179L38.909 13.0305C39.087 12.4605 39.652 12.1105 40.241 12.1905L41.585 12.4005C42.173 12.5005 42.605 13.0105 42.6 13.6005L42.568 16.1305C44.795 17.2505 46.2 19.5305 46.2 22.0205V31.7005L47.568 33.2905C47.691 33.4405 47.791 33.6005 47.865 33.7805ZM36.055 29.9205L36.92 33.4205H39.953C40.367 32.3705 40.251 31.2005 40.122 29.9705L40.113 29.8805C39.966 28.5405 39.799 27.0105 40.487 25.5705L40.074 25.5305H40.072L37.297 25.1005C37.496 26.6405 36.892 28.0105 36.307 29.3405C36.222 29.5305 36.138 29.7305 36.055 29.9205ZM23.4 36.4205V34.0205H18.6V36.4205C18.601 37.4105 19.406 38.2205 20.4 38.2205H21.6C22.594 38.2205 23.399 37.4105 23.4 36.4205ZM41.251 29.2205H42.6V22.0205C42.603 21.2505 42.307 20.5105 41.775 19.9605L41.305 21.4905L40.845 24.4605C41.144 24.5505 41.393 24.7605 41.543 25.0405C41.719 25.3605 41.729 25.7505 41.57 26.0905C41.178 27.0805 41.068 28.1705 41.251 29.2205ZM39.663 24.2505L40.031 21.8805L39.775 21.8405L38.84 21.6905L38.473 24.0605L39.663 24.2505ZM37.283 23.9005L37.743 20.9405L37.767 19.0205H25.8C24.144 19.0205 22.802 20.3605 22.8 22.0205V29.2205H28.461L27.035 23.4505C26.877 22.8105 27.271 22.1605 27.916 22.0005L32.574 20.8505C32.875 20.7705 33.196 20.8205 33.464 20.9705C33.743 21.1405 33.945 21.4105 34.025 21.7205L35.578 28.0005C35.992 27.1405 36.17 26.1905 36.096 25.2405C36.045 24.8705 36.172 24.5005 36.437 24.2505C36.664 24.0305 36.967 23.9105 37.283 23.9005ZM29.428 33.1305L28.758 30.4205H27.105L29.428 33.1305ZM32.543 33.2205C32.557 33.2805 32.56 33.3505 32.552 33.4205H35.684L32.862 22.0105L28.2 23.1705L28.92 26.0805L30.087 25.7905C30.296 25.7305 30.518 25.8005 30.669 25.9505C30.819 26.1105 30.874 26.3305 30.813 26.5405C30.753 26.7505 30.585 26.9005 30.375 26.9505L29.208 27.2405L29.497 28.4105L30.663 28.1205C30.983 28.0405 31.304 28.2405 31.383 28.5605C31.461 28.8805 31.269 29.2005 30.951 29.2805L29.784 29.5705L30.072 30.7405L31.239 30.4505C31.448 30.4005 31.669 30.4605 31.818 30.6105C31.967 30.7705 32.022 30.9905 31.962 31.2005C31.902 31.4005 31.736 31.5605 31.528 31.6105L30.36 31.9005L30.648 33.0705L31.816 32.7805C31.97 32.7405 32.134 32.7605 32.27 32.8505C32.406 32.9305 32.504 33.0605 32.543 33.2205ZM43.248 30.4205H41.374C41.511 31.4205 41.458 32.4405 41.218 33.4205H46.096L43.704 30.6305C43.59 30.5005 43.423 30.4205 43.248 30.4205ZM45 30.3005V22.0205C44.999 20.1805 44.063 18.4705 42.516 17.4805C42.513 17.5005 42.512 17.5105 42.51 17.5205C42.508 17.5405 42.507 17.5605 42.502 17.5805L42.159 18.7005C43.197 19.4905 43.804 20.7205 43.8 22.0205V29.3205C44.115 29.4205 44.397 29.6005 44.615 29.8505L45 30.3005ZM41.4 13.5905L40.057 13.3805L38.995 16.8605L38.975 18.4105L38.976 18.4205L38.975 18.4305L38.949 20.4905L39.784 20.6205L40.292 20.7005L41.354 17.2305V17.2205L41.4 13.5905ZM25.8 16.6205C22.819 16.6205 20.403 19.0405 20.4 22.0205V32.8205H21.6V22.0205C21.603 19.7005 23.482 17.8205 25.8 17.8205H37.782L37.795 16.8405C37.799 16.7705 37.811 16.6905 37.83 16.6205H25.8ZM13.344 34.0705C13.251 34.1805 13.2 34.3205 13.2 34.4605V46.6205H28.8V34.4605C28.8 34.3905 28.785 34.3105 28.757 34.2405C28.73 34.1805 28.694 34.1205 28.649 34.0705L25.704 30.6305C25.59 30.5005 25.423 30.4205 25.248 30.4205H22.8V32.8205H23.4C24.062 32.8205 24.599 33.3605 24.6 34.0205V36.4205C24.598 38.0805 23.256 39.4205 21.6 39.4205H20.4C18.744 39.4205 17.402 38.0805 17.4 36.4205V34.0205C17.401 33.3605 17.938 32.8205 18.6 32.8205H19.2V30.4205H16.752C16.576 30.4205 16.409 30.5005 16.294 30.6305L13.344 34.0705ZM30 34.6205V46.6205H46.8V34.6205H30ZM30.369 24.2505C30.405 24.0105 30.582 23.8105 30.818 23.7505C31.14 23.6705 31.465 23.8705 31.545 24.1905C31.603 24.4305 31.514 24.6705 31.319 24.8205C31.123 24.9605 30.86 24.9705 30.653 24.8505C30.445 24.7205 30.333 24.4905 30.369 24.2505ZM33 35.8205H31.8C31.469 35.8205 31.2 36.0905 31.2 36.4205C31.2 36.7505 31.469 37.0205 31.8 37.0205H33C33.332 37.0205 33.6 36.7505 33.6 36.4205C33.6 36.0905 33.332 35.8205 33 35.8205ZM35.4 35.8205H45C45.331 35.8205 45.6 36.0905 45.6 36.4205C45.6 36.7505 45.331 37.0205 45 37.0205H35.4C35.068 37.0205 34.8 36.7505 34.8 36.4205C34.8 36.0905 35.068 35.8205 35.4 35.8205Z" fill="#1C57C9"/>
<mask id="mask0_83_1358" style="mask-type:alpha" maskUnits="userSpaceOnUse" x="12" y="12" width="36" height="36">
<path fill-rule="evenodd" clip-rule="evenodd" d="M47.865 33.7805L47.869 33.7905L47.873 33.8005C47.957 34.0105 48 34.2405 48 34.4605V47.2205C48 47.5505 47.731 47.8205 47.4 47.8205H12.6C12.269 47.8205 12 47.5505 12 47.2205V34.4605C11.999 34.0305 12.153 33.6205 12.433 33.2905L15.384 29.8505C15.727 29.4505 16.226 29.2205 16.752 29.2205H19.2V22.0205C19.204 18.3805 22.157 15.4205 25.8 15.4205H38.179L38.909 13.0305C39.087 12.4605 39.652 12.1105 40.241 12.1905L41.585 12.4005C42.173 12.5005 42.605 13.0105 42.6 13.6005L42.568 16.1305C44.795 17.2505 46.2 19.5305 46.2 22.0205V31.7005L47.568 33.2905C47.691 33.4405 47.791 33.6005 47.865 33.7805ZM36.055 29.9205L36.92 33.4205H39.953C40.367 32.3705 40.251 31.2005 40.122 29.9705L40.113 29.8805C39.966 28.5405 39.799 27.0105 40.487 25.5705L40.074 25.5305H40.072L37.297 25.1005C37.496 26.6405 36.892 28.0105 36.307 29.3405C36.222 29.5305 36.138 29.7305 36.055 29.9205ZM23.4 36.4205V34.0205H18.6V36.4205C18.601 37.4105 19.406 38.2205 20.4 38.2205H21.6C22.594 38.2205 23.399 37.4105 23.4 36.4205ZM41.251 29.2205H42.6V22.0205C42.603 21.2505 42.307 20.5105 41.775 19.9605L41.305 21.4905L40.845 24.4605C41.144 24.5505 41.393 24.7605 41.543 25.0405C41.719 25.3605 41.729 25.7505 41.57 26.0905C41.178 27.0805 41.068 28.1705 41.251 29.2205ZM39.663 24.2505L40.031 21.8805L39.775 21.8405L38.84 21.6905L38.473 24.0605L39.663 24.2505ZM37.283 23.9005L37.743 20.9405L37.767 19.0205H25.8C24.144 19.0205 22.802 20.3605 22.8 22.0205V29.2205H28.461L27.035 23.4505C26.877 22.8105 27.271 22.1605 27.916 22.0005L32.574 20.8505C32.875 20.7705 33.196 20.8205 33.464 20.9705C33.743 21.1405 33.945 21.4105 34.025 21.7205L35.578 28.0005C35.992 27.1405 36.17 26.1905 36.096 25.2405C36.045 24.8705 36.172 24.5005 36.437 24.2505C36.664 24.0305 36.967 23.9105 37.283 23.9005ZM29.428 33.1305L28.758 30.4205H27.105L29.428 33.1305ZM32.543 33.2205C32.557 33.2805 32.56 33.3505 32.552 33.4205H35.684L32.862 22.0105L28.2 23.1705L28.92 26.0805L30.087 25.7905C30.296 25.7305 30.518 25.8005 30.669 25.9505C30.819 26.1105 30.874 26.3305 30.813 26.5405C30.753 26.7505 30.585 26.9005 30.375 26.9505L29.208 27.2405L29.497 28.4105L30.663 28.1205C30.983 28.0405 31.304 28.2405 31.383 28.5605C31.461 28.8805 31.269 29.2005 30.951 29.2805L29.784 29.5705L30.072 30.7405L31.239 30.4505C31.448 30.4005 31.669 30.4605 31.818 30.6105C31.967 30.7705 32.022 30.9905 31.962 31.2005C31.902 31.4005 31.736 31.5605 31.528 31.6105L30.36 31.9005L30.648 33.0705L31.816 32.7805C31.97 32.7405 32.134 32.7605 32.27 32.8505C32.406 32.9305 32.504 33.0605 32.543 33.2205ZM43.248 30.4205H41.374C41.511 31.4205 41.458 32.4405 41.218 33.4205H46.096L43.704 30.6305C43.59 30.5005 43.423 30.4205 43.248 30.4205ZM45 30.3005V22.0205C44.999 20.1805 44.063 18.4705 42.516 17.4805C42.513 17.5005 42.512 17.5105 42.51 17.5205C42.508 17.5405 42.507 17.5605 42.502 17.5805L42.159 18.7005C43.197 19.4905 43.804 20.7205 43.8 22.0205V29.3205C44.115 29.4205 44.397 29.6005 44.615 29.8505L45 30.3005ZM41.4 13.5905L40.057 13.3805L38.995 16.8605L38.975 18.4105L38.976 18.4205L38.975 18.4305L38.949 20.4905L39.784 20.6205L40.292 20.7005L41.354 17.2305V17.2205L41.4 13.5905ZM25.8 16.6205C22.819 16.6205 20.403 19.0405 20.4 22.0205V32.8205H21.6V22.0205C21.603 19.7005 23.482 17.8205 25.8 17.8205H37.782L37.795 16.8405C37.799 16.7705 37.811 16.6905 37.83 16.6205H25.8ZM13.344 34.0705C13.251 34.1805 13.2 34.3205 13.2 34.4605V46.6205H28.8V34.4605C28.8 34.3905 28.785 34.3105 28.757 34.2405C28.73 34.1805 28.694 34.1205 28.649 34.0705L25.704 30.6305C25.59 30.5005 25.423 30.4205 25.248 30.4205H22.8V32.8205H23.4C24.062 32.8205 24.599 33.3605 24.6 34.0205V36.4205C24.598 38.0805 23.256 39.4205 21.6 39.4205H20.4C18.744 39.4205 17.402 38.0805 17.4 36.4205V34.0205C17.401 33.3605 17.938 32.8205 18.6 32.8205H19.2V30.4205H16.752C16.576 30.4205 16.409 30.5005 16.294 30.6305L13.344 34.0705ZM30 34.6205V46.6205H46.8V34.6205H30ZM30.369 24.2505C30.405 24.0105 30.582 23.8105 30.818 23.7505C31.14 23.6705 31.465 23.8705 31.545 24.1905C31.603 24.4305 31.514 24.6705 31.319 24.8205C31.123 24.9605 30.86 24.9705 30.653 24.8505C30.445 24.7205 30.333 24.4905 30.369 24.2505ZM33 35.8205H31.8C31.469 35.8205 31.2 36.0905 31.2 36.4205C31.2 36.7505 31.469 37.0205 31.8 37.0205H33C33.332 37.0205 33.6 36.7505 33.6 36.4205C33.6 36.0905 33.332 35.8205 33 35.8205ZM35.4 35.8205H45C45.331 35.8205 45.6 36.0905 45.6 36.4205C45.6 36.7505 45.331 37.0205 45 37.0205H35.4C35.068 37.0205 34.8 36.7505 34.8 36.4205C34.8 36.0905 35.068 35.8205 35.4 35.8205Z" fill="white"/>
</mask>
<g mask="url(#mask0_83_1358)">
<rect x="12" y="12" width="36" height="36" fill="#2053D1"/>
</g>
</svg>
