<svg width="60" height="60" viewBox="0 0 60 60" fill="none" xmlns="http://www.w3.org/2000/svg">
<circle cx="30" cy="30" r="30" fill="white"/>
<path fill-rule="evenodd" clip-rule="evenodd" d="M45.891 17.62H44.203V14.11C44.203 12.95 43.257 12 42.094 12H17.906C16.743 12 15.797 12.95 15.797 14.11V17.62H14.109C12.946 17.62 12 18.57 12 19.73V39.98C12 41.15 12.946 42.09 14.109 42.09H26.484V43.78H25.147C23.984 43.78 23.037 44.73 23.037 45.89V47.3C23.037 47.69 23.352 48 23.74 48H36.26C36.648 48 36.963 47.69 36.963 47.3V45.89C36.963 44.73 36.016 43.78 34.853 43.78H33.516V42.09H45.891C47.054 42.09 48 41.15 48 39.98V19.73C48 18.57 47.054 17.62 45.891 17.62ZM45.891 19.03C46.278 19.03 46.594 19.35 46.594 19.73V35.91H44.203V19.03H45.891ZM17.906 13.41H42.094C42.481 13.41 42.797 13.72 42.797 14.11V17.62H17.203V14.11C17.203 13.72 17.519 13.41 17.906 13.41ZM14.109 19.03H15.797V24.3C15.797 24.69 16.112 25.01 16.5 25.01C16.888 25.01 17.203 24.69 17.203 24.3V19.03H42.797V35.91H39.211V33.59C39.211 33.2 38.896 32.89 38.508 32.89H37.593C37.432 32.33 37.212 31.8 36.933 31.29L37.58 30.65C37.855 30.37 37.855 29.93 37.58 29.65L35.446 27.52C35.171 27.24 34.726 27.24 34.451 27.52L33.804 28.17C33.299 27.89 32.766 27.67 32.213 27.51V26.59C32.213 26.2 31.898 25.89 31.509 25.89H28.49C28.102 25.89 27.787 26.2 27.787 26.59V27.51C27.234 27.67 26.701 27.89 26.196 28.17L25.549 27.52C25.274 27.24 24.829 27.24 24.554 27.52L22.419 29.65C22.145 29.93 22.145 30.37 22.419 30.65L23.067 31.29C22.788 31.8 22.568 32.33 22.407 32.89H21.492C21.104 32.89 20.789 33.2 20.789 33.59V35.91H17.203V30.63C17.203 30.24 16.888 29.93 16.5 29.93C16.112 29.93 15.797 30.24 15.797 30.63V35.91H13.406V19.73C13.406 19.35 13.722 19.03 14.109 19.03ZM24.448 30.69L23.911 30.15L25.051 29.01L25.589 29.55C25.823 29.78 26.19 29.82 26.469 29.64C27.134 29.21 27.864 28.91 28.637 28.74C28.962 28.67 29.194 28.38 29.194 28.05V27.29H30.806V28.05C30.806 28.38 31.038 28.67 31.363 28.74C32.137 28.91 32.866 29.21 33.532 29.64C33.81 29.82 34.177 29.78 34.411 29.55L34.949 29.01L36.089 30.15L35.552 30.69C35.317 30.92 35.278 31.29 35.459 31.57C35.89 32.23 36.193 32.96 36.358 33.74C36.427 34.06 36.714 34.29 37.045 34.29H37.805V35.91H33.421C33.484 35.64 33.516 35.37 33.516 35.1C33.516 33.16 31.939 31.58 30 31.58C28.061 31.58 26.484 33.16 26.484 35.1C26.484 35.37 26.516 35.64 26.579 35.91H22.195V34.29H22.955C23.287 34.29 23.573 34.06 23.642 33.74C23.807 32.96 24.11 32.23 24.541 31.57C24.722 31.29 24.683 30.92 24.448 30.69ZM27.89 35.1C27.89 33.94 28.837 32.99 30 32.99C31.163 32.99 32.11 33.94 32.11 35.1C32.11 35.38 32.054 35.65 31.947 35.91H28.053C27.946 35.65 27.89 35.38 27.89 35.1ZM35.556 45.89V46.59H24.444V45.89C24.444 45.5 24.759 45.19 25.147 45.19H34.853C35.241 45.19 35.556 45.5 35.556 45.89ZM27.891 43.78V42.09H32.109V43.78H27.891ZM14.109 40.69C13.722 40.69 13.406 40.37 13.406 39.98V37.31H46.594V39.98C46.594 40.37 46.278 40.69 45.891 40.69H14.109ZM32.109 16.22H39.703C40.091 16.22 40.406 15.9 40.406 15.52C40.406 15.13 40.091 14.81 39.703 14.81H32.109C31.721 14.81 31.406 15.13 31.406 15.52C31.406 15.9 31.721 16.22 32.109 16.22ZM23.888 16.01C23.757 16.14 23.576 16.22 23.391 16.22C23.206 16.22 23.024 16.14 22.894 16.01C22.763 15.88 22.688 15.7 22.688 15.52C22.688 15.33 22.763 15.15 22.894 15.02C23.024 14.89 23.206 14.81 23.391 14.81C23.576 14.81 23.757 14.89 23.888 15.02C24.019 15.15 24.094 15.33 24.094 15.52C24.094 15.7 24.019 15.88 23.888 16.01ZM20.297 16.22C20.482 16.22 20.663 16.14 20.794 16.01C20.925 15.88 21 15.7 21 15.52C21 15.33 20.925 15.15 20.794 15.02C20.663 14.89 20.482 14.81 20.297 14.81C20.112 14.81 19.931 14.89 19.8 15.02C19.669 15.15 19.594 15.33 19.594 15.52C19.594 15.7 19.669 15.88 19.8 16.01C19.931 16.14 20.112 16.22 20.297 16.22ZM26.981 16.01C26.851 16.14 26.669 16.22 26.484 16.22C26.299 16.22 26.118 16.14 25.987 16.01C25.856 15.88 25.781 15.7 25.781 15.52C25.781 15.33 25.856 15.15 25.987 15.02C26.118 14.89 26.299 14.81 26.484 14.81C26.669 14.81 26.851 14.89 26.981 15.02C27.112 15.15 27.188 15.33 27.188 15.52C27.188 15.7 27.112 15.88 26.981 16.01ZM19.875 22.41H21.548C21.937 22.41 22.251 22.09 22.251 21.7C22.251 21.31 21.937 21 21.548 21H19.875C19.487 21 19.172 21.31 19.172 21.7C19.172 22.09 19.487 22.41 19.875 22.41ZM31.092 22.41H24.642C24.254 22.41 23.939 22.09 23.939 21.7C23.939 21.31 24.254 21 24.642 21H31.092C31.481 21 31.796 21.31 31.796 21.7C31.796 22.09 31.481 22.41 31.092 22.41ZM19.875 25.78H23.953C24.341 25.78 24.656 25.47 24.656 25.08C24.656 24.69 24.341 24.37 23.953 24.37H19.875C19.487 24.37 19.172 24.69 19.172 25.08C19.172 25.47 19.487 25.78 19.875 25.78ZM40.125 22.41H34.186C33.798 22.41 33.483 22.09 33.483 21.7C33.483 21.31 33.798 21 34.186 21H40.125C40.513 21 40.828 21.31 40.828 21.7C40.828 22.09 40.513 22.41 40.125 22.41ZM40.125 24.37H35.313C34.925 24.37 34.61 24.69 34.61 25.08C34.61 25.47 34.925 25.78 35.313 25.78H40.125C40.513 25.78 40.828 25.47 40.828 25.08C40.828 24.69 40.513 24.37 40.125 24.37ZM16.997 27.97C16.866 28.1 16.685 28.17 16.5 28.17C16.315 28.17 16.134 28.1 16.003 27.97C15.872 27.83 15.797 27.65 15.797 27.47C15.797 27.28 15.872 27.1 16.003 26.97C16.134 26.84 16.315 26.76 16.5 26.76C16.685 26.76 16.866 26.84 16.997 26.97C17.128 27.1 17.203 27.28 17.203 27.47C17.203 27.65 17.128 27.83 16.997 27.97Z" fill="#1C57C9"/>
<mask id="mask0_83_1264" style="mask-type:alpha" maskUnits="userSpaceOnUse" x="12" y="12" width="36" height="36">
<path fill-rule="evenodd" clip-rule="evenodd" d="M45.891 17.62H44.203V14.11C44.203 12.95 43.257 12 42.094 12H17.906C16.743 12 15.797 12.95 15.797 14.11V17.62H14.109C12.946 17.62 12 18.57 12 19.73V39.98C12 41.15 12.946 42.09 14.109 42.09H26.484V43.78H25.147C23.984 43.78 23.037 44.73 23.037 45.89V47.3C23.037 47.69 23.352 48 23.74 48H36.26C36.648 48 36.963 47.69 36.963 47.3V45.89C36.963 44.73 36.016 43.78 34.853 43.78H33.516V42.09H45.891C47.054 42.09 48 41.15 48 39.98V19.73C48 18.57 47.054 17.62 45.891 17.62ZM45.891 19.03C46.278 19.03 46.594 19.35 46.594 19.73V35.91H44.203V19.03H45.891ZM17.906 13.41H42.094C42.481 13.41 42.797 13.72 42.797 14.11V17.62H17.203V14.11C17.203 13.72 17.519 13.41 17.906 13.41ZM14.109 19.03H15.797V24.3C15.797 24.69 16.112 25.01 16.5 25.01C16.888 25.01 17.203 24.69 17.203 24.3V19.03H42.797V35.91H39.211V33.59C39.211 33.2 38.896 32.89 38.508 32.89H37.593C37.432 32.33 37.212 31.8 36.933 31.29L37.58 30.65C37.855 30.37 37.855 29.93 37.58 29.65L35.446 27.52C35.171 27.24 34.726 27.24 34.451 27.52L33.804 28.17C33.299 27.89 32.766 27.67 32.213 27.51V26.59C32.213 26.2 31.898 25.89 31.509 25.89H28.49C28.102 25.89 27.787 26.2 27.787 26.59V27.51C27.234 27.67 26.701 27.89 26.196 28.17L25.549 27.52C25.274 27.24 24.829 27.24 24.554 27.52L22.419 29.65C22.145 29.93 22.145 30.37 22.419 30.65L23.067 31.29C22.788 31.8 22.568 32.33 22.407 32.89H21.492C21.104 32.89 20.789 33.2 20.789 33.59V35.91H17.203V30.63C17.203 30.24 16.888 29.93 16.5 29.93C16.112 29.93 15.797 30.24 15.797 30.63V35.91H13.406V19.73C13.406 19.35 13.722 19.03 14.109 19.03ZM24.448 30.69L23.911 30.15L25.051 29.01L25.589 29.55C25.823 29.78 26.19 29.82 26.469 29.64C27.134 29.21 27.864 28.91 28.637 28.74C28.962 28.67 29.194 28.38 29.194 28.05V27.29H30.806V28.05C30.806 28.38 31.038 28.67 31.363 28.74C32.137 28.91 32.866 29.21 33.532 29.64C33.81 29.82 34.177 29.78 34.411 29.55L34.949 29.01L36.089 30.15L35.552 30.69C35.317 30.92 35.278 31.29 35.459 31.57C35.89 32.23 36.193 32.96 36.358 33.74C36.427 34.06 36.714 34.29 37.045 34.29H37.805V35.91H33.421C33.484 35.64 33.516 35.37 33.516 35.1C33.516 33.16 31.939 31.58 30 31.58C28.061 31.58 26.484 33.16 26.484 35.1C26.484 35.37 26.516 35.64 26.579 35.91H22.195V34.29H22.955C23.287 34.29 23.573 34.06 23.642 33.74C23.807 32.96 24.11 32.23 24.541 31.57C24.722 31.29 24.683 30.92 24.448 30.69ZM27.89 35.1C27.89 33.94 28.837 32.99 30 32.99C31.163 32.99 32.11 33.94 32.11 35.1C32.11 35.38 32.054 35.65 31.947 35.91H28.053C27.946 35.65 27.89 35.38 27.89 35.1ZM35.556 45.89V46.59H24.444V45.89C24.444 45.5 24.759 45.19 25.147 45.19H34.853C35.241 45.19 35.556 45.5 35.556 45.89ZM27.891 43.78V42.09H32.109V43.78H27.891ZM14.109 40.69C13.722 40.69 13.406 40.37 13.406 39.98V37.31H46.594V39.98C46.594 40.37 46.278 40.69 45.891 40.69H14.109ZM32.109 16.22H39.703C40.091 16.22 40.406 15.9 40.406 15.52C40.406 15.13 40.091 14.81 39.703 14.81H32.109C31.721 14.81 31.406 15.13 31.406 15.52C31.406 15.9 31.721 16.22 32.109 16.22ZM23.888 16.01C23.757 16.14 23.576 16.22 23.391 16.22C23.206 16.22 23.024 16.14 22.894 16.01C22.763 15.88 22.688 15.7 22.688 15.52C22.688 15.33 22.763 15.15 22.894 15.02C23.024 14.89 23.206 14.81 23.391 14.81C23.576 14.81 23.757 14.89 23.888 15.02C24.019 15.15 24.094 15.33 24.094 15.52C24.094 15.7 24.019 15.88 23.888 16.01ZM20.297 16.22C20.482 16.22 20.663 16.14 20.794 16.01C20.925 15.88 21 15.7 21 15.52C21 15.33 20.925 15.15 20.794 15.02C20.663 14.89 20.482 14.81 20.297 14.81C20.112 14.81 19.931 14.89 19.8 15.02C19.669 15.15 19.594 15.33 19.594 15.52C19.594 15.7 19.669 15.88 19.8 16.01C19.931 16.14 20.112 16.22 20.297 16.22ZM26.981 16.01C26.851 16.14 26.669 16.22 26.484 16.22C26.299 16.22 26.118 16.14 25.987 16.01C25.856 15.88 25.781 15.7 25.781 15.52C25.781 15.33 25.856 15.15 25.987 15.02C26.118 14.89 26.299 14.81 26.484 14.81C26.669 14.81 26.851 14.89 26.981 15.02C27.112 15.15 27.188 15.33 27.188 15.52C27.188 15.7 27.112 15.88 26.981 16.01ZM19.875 22.41H21.548C21.937 22.41 22.251 22.09 22.251 21.7C22.251 21.31 21.937 21 21.548 21H19.875C19.487 21 19.172 21.31 19.172 21.7C19.172 22.09 19.487 22.41 19.875 22.41ZM31.092 22.41H24.642C24.254 22.41 23.939 22.09 23.939 21.7C23.939 21.31 24.254 21 24.642 21H31.092C31.481 21 31.796 21.31 31.796 21.7C31.796 22.09 31.481 22.41 31.092 22.41ZM19.875 25.78H23.953C24.341 25.78 24.656 25.47 24.656 25.08C24.656 24.69 24.341 24.37 23.953 24.37H19.875C19.487 24.37 19.172 24.69 19.172 25.08C19.172 25.47 19.487 25.78 19.875 25.78ZM40.125 22.41H34.186C33.798 22.41 33.483 22.09 33.483 21.7C33.483 21.31 33.798 21 34.186 21H40.125C40.513 21 40.828 21.31 40.828 21.7C40.828 22.09 40.513 22.41 40.125 22.41ZM40.125 24.37H35.313C34.925 24.37 34.61 24.69 34.61 25.08C34.61 25.47 34.925 25.78 35.313 25.78H40.125C40.513 25.78 40.828 25.47 40.828 25.08C40.828 24.69 40.513 24.37 40.125 24.37ZM16.997 27.97C16.866 28.1 16.685 28.17 16.5 28.17C16.315 28.17 16.134 28.1 16.003 27.97C15.872 27.83 15.797 27.65 15.797 27.47C15.797 27.28 15.872 27.1 16.003 26.97C16.134 26.84 16.315 26.76 16.5 26.76C16.685 26.76 16.866 26.84 16.997 26.97C17.128 27.1 17.203 27.28 17.203 27.47C17.203 27.65 17.128 27.83 16.997 27.97Z" fill="white"/>
</mask>
<g mask="url(#mask0_83_1264)">
<rect x="12" y="12" width="36" height="36" fill="#2053D1"/>
</g>
</svg>
