<svg width="55" height="56" viewBox="0 0 55 56" fill="none" xmlns="http://www.w3.org/2000/svg">
<rect y="0.5" width="55" height="55" rx="24" fill="#E9FAF0"/>
<path fill-rule="evenodd" clip-rule="evenodd" d="M34.6619 32.2546L43.818 41.6399C44.3361 42.1668 44.622 42.8692 44.622 43.6204C44.622 44.3716 44.3361 45.0838 43.818 45.6107C43.3 46.1473 42.6112 46.4399 41.8785 46.4399C41.1449 46.4399 40.4561 46.1473 39.938 45.6107L33.3137 38.8204H33.3127L30.782 36.2253C28.5351 37.757 25.9332 38.5668 23.219 38.5668C15.6541 38.5668 9.5 32.2546 9.5 24.4985C9.5 16.7521 15.6541 10.4399 23.219 10.4399C30.7849 10.4399 36.939 16.7521 36.939 24.4985C36.939 27.279 36.1537 29.9521 34.6619 32.2546ZM30.459 34.7521C31.5195 33.9619 32.4463 33.0058 33.2161 31.9229C34.7537 29.7473 35.5673 27.1912 35.5673 24.4985C35.5673 17.5229 30.0278 11.8448 23.219 11.8448C16.4112 11.8448 10.8717 17.5229 10.8717 24.4985C10.8717 31.4838 16.4112 37.1619 23.219 37.1619C25.8385 37.1619 28.342 36.3229 30.459 34.7521ZM33.8376 33.396C33.2571 34.1277 32.6083 34.7912 31.898 35.3863L33.8444 37.3765C34.5429 36.7716 35.1927 36.1082 35.7839 35.396L33.8376 33.396ZM41.8785 45.0351C42.2444 45.0351 42.5888 44.8887 42.8483 44.6156C43.1068 44.3521 43.2502 44.0009 43.2502 43.6204C43.2502 43.2497 43.1068 42.8985 42.8483 42.6351L36.7566 36.3912C36.1605 37.1034 35.5117 37.7668 34.8171 38.3717L40.9078 44.6156C41.1673 44.8887 41.5117 45.0351 41.8785 45.0351ZM30.0795 24.4985C30.0795 24.118 30.3868 23.796 30.7654 23.796C31.1439 23.796 31.4512 24.118 31.4512 24.4985C31.4512 24.8887 31.1439 25.2107 30.7654 25.2107C30.3868 25.2107 30.0795 24.8887 30.0795 24.4985ZM23.219 13.2595C17.1673 13.2595 12.2434 18.3034 12.2434 24.4985C12.2434 30.7034 17.1673 35.7473 23.219 35.7473C29.2717 35.7473 34.1946 30.7034 34.1946 24.4985C34.1946 18.3034 29.2717 13.2595 23.219 13.2595ZM23.219 34.3424C17.9244 34.3424 13.6161 29.9326 13.6161 24.4985C13.6161 19.0741 17.9244 14.6643 23.219 14.6643C28.5146 14.6643 32.8229 19.0741 32.8229 24.4985C32.8229 29.9326 28.5146 34.3424 23.219 34.3424ZM27.9322 17.5912C29.2873 18.5668 30.3166 19.9131 30.9068 21.4838C31.0424 21.8448 30.8659 22.2546 30.5127 22.3912C30.4317 22.4204 30.3488 22.4399 30.2668 22.4399C29.9907 22.4399 29.7312 22.2643 29.6259 21.9912C28.6132 19.2887 26.0385 17.4741 23.219 17.4741C22.8405 17.4741 22.5332 17.1619 22.5332 16.7716C22.5332 16.3814 22.8405 16.0692 23.219 16.0692C24.9156 16.0692 26.5449 16.596 27.9322 17.5912Z" fill="#1ECE7A"/>
<mask id="mask0_11_2593" style="mask-type:alpha" maskUnits="userSpaceOnUse" x="9" y="10" width="36" height="37">
<path fill-rule="evenodd" clip-rule="evenodd" d="M34.6619 32.2546L43.818 41.6399C44.3361 42.1668 44.622 42.8692 44.622 43.6204C44.622 44.3716 44.3361 45.0838 43.818 45.6107C43.3 46.1473 42.6112 46.4399 41.8785 46.4399C41.1449 46.4399 40.4561 46.1473 39.938 45.6107L33.3137 38.8204H33.3127L30.782 36.2253C28.5351 37.757 25.9332 38.5668 23.219 38.5668C15.6541 38.5668 9.5 32.2546 9.5 24.4985C9.5 16.7521 15.6541 10.4399 23.219 10.4399C30.7849 10.4399 36.939 16.7521 36.939 24.4985C36.939 27.279 36.1537 29.9521 34.6619 32.2546ZM30.459 34.7521C31.5195 33.9619 32.4463 33.0058 33.2161 31.9229C34.7537 29.7473 35.5673 27.1912 35.5673 24.4985C35.5673 17.5229 30.0278 11.8448 23.219 11.8448C16.4112 11.8448 10.8717 17.5229 10.8717 24.4985C10.8717 31.4838 16.4112 37.1619 23.219 37.1619C25.8385 37.1619 28.342 36.3229 30.459 34.7521ZM33.8376 33.396C33.2571 34.1277 32.6083 34.7912 31.898 35.3863L33.8444 37.3765C34.5429 36.7716 35.1927 36.1082 35.7839 35.396L33.8376 33.396ZM41.8785 45.0351C42.2444 45.0351 42.5888 44.8887 42.8483 44.6156C43.1068 44.3521 43.2502 44.0009 43.2502 43.6204C43.2502 43.2497 43.1068 42.8985 42.8483 42.6351L36.7566 36.3912C36.1605 37.1034 35.5117 37.7668 34.8171 38.3717L40.9078 44.6156C41.1673 44.8887 41.5117 45.0351 41.8785 45.0351ZM30.0795 24.4985C30.0795 24.118 30.3868 23.796 30.7654 23.796C31.1439 23.796 31.4512 24.118 31.4512 24.4985C31.4512 24.8887 31.1439 25.2107 30.7654 25.2107C30.3868 25.2107 30.0795 24.8887 30.0795 24.4985ZM23.219 13.2595C17.1673 13.2595 12.2434 18.3034 12.2434 24.4985C12.2434 30.7034 17.1673 35.7473 23.219 35.7473C29.2717 35.7473 34.1946 30.7034 34.1946 24.4985C34.1946 18.3034 29.2717 13.2595 23.219 13.2595ZM23.219 34.3424C17.9244 34.3424 13.6161 29.9326 13.6161 24.4985C13.6161 19.0741 17.9244 14.6643 23.219 14.6643C28.5146 14.6643 32.8229 19.0741 32.8229 24.4985C32.8229 29.9326 28.5146 34.3424 23.219 34.3424ZM27.9322 17.5912C29.2873 18.5668 30.3166 19.9131 30.9068 21.4838C31.0424 21.8448 30.8659 22.2546 30.5127 22.3912C30.4317 22.4204 30.3488 22.4399 30.2668 22.4399C29.9907 22.4399 29.7312 22.2643 29.6259 21.9912C28.6132 19.2887 26.0385 17.4741 23.219 17.4741C22.8405 17.4741 22.5332 17.1619 22.5332 16.7716C22.5332 16.3814 22.8405 16.0692 23.219 16.0692C24.9156 16.0692 26.5449 16.596 27.9322 17.5912Z" fill="white"/>
</mask>
<g mask="url(#mask0_11_2593)">
<rect x="9.5" y="10.4399" width="36" height="36" fill="#3ACF6E"/>
</g>
</svg>
