<svg width="60" height="60" viewBox="0 0 60 60" fill="none" xmlns="http://www.w3.org/2000/svg">
<circle cx="30" cy="30" r="30" fill="white"/>
<path fill-rule="evenodd" clip-rule="evenodd" d="M47.6252 34.2392C47.3961 34.1492 47.1351 34.2092 46.9651 34.3892L44.402 37.0793V21.0784H44.405L46.8501 18.4382C47.0751 18.1982 47.0601 17.8182 46.8171 17.5882H46.8161L45.9361 16.7681L47.1591 15.448C47.3841 15.208 47.3691 14.828 47.1251 14.608L44.485 12.1578C44.2419 11.9378 43.8629 11.9478 43.6379 12.1878L39.3717 16.7981H18.6004C18.5984 15.138 17.2563 13.7979 15.6002 13.7979H15.0002C13.3441 13.7979 12.002 15.138 12 16.7981V42.5997C12 42.9297 12.269 43.1997 12.6 43.1997H21.6836L20.4235 44.7098C20.2115 44.9698 20.2465 45.3498 20.5005 45.5599L23.2677 47.86C23.5217 48.07 23.9007 48.04 24.1127 47.78L27.1839 44.0898C27.3959 43.8397 27.5329 43.5297 27.5779 43.1997H38.5726L34.9664 46.9899C34.7384 47.23 34.7474 47.61 34.9874 47.83C35.0994 47.94 35.2474 48 35.4014 48H47.4021C47.7332 48 48.0022 47.73 48.0022 47.4V34.7992C48.0022 34.5492 47.8532 34.3292 47.6252 34.2392ZM45.562 18.0582L44.402 19.3083V18.4282L45.122 17.6482L45.562 18.0582ZM43.2019 17.9482V17.9582L38.1276 23.4385L36.3655 21.8084L42.4778 15.208L44.2409 16.8381L43.2089 17.9482H43.2019ZM36.9745 24.0086L35.5944 24.4186L35.8894 23.0085L36.9745 24.0086ZM44.1089 13.4479L45.87 15.078L45.055 15.9581L43.2929 14.328L44.1089 13.4479ZM15.0002 14.998H15.6002C16.5943 14.998 17.4003 15.8081 17.4003 16.7981V39.6095C16.8843 39.2195 16.2513 38.9995 15.6002 38.9995H15.0002C14.3491 38.9995 13.7161 39.2195 13.2001 39.6095V16.7981C13.2001 15.8081 14.0061 14.998 15.0002 14.998ZM15.0002 40.1995H15.6002C16.5943 40.1995 17.4003 41.0096 17.4003 41.9996H13.2001C13.2001 41.0096 14.0061 40.1995 15.0002 40.1995ZM26.2619 43.3297L25.8778 43.7897L24.0337 42.2497L24.4168 41.7896C24.6298 41.5396 25.0078 41.4996 25.2618 41.7096H25.2628L26.1849 42.4797C26.4399 42.6897 26.4749 43.0697 26.2629 43.3197H26.2619V43.3297ZM23.5747 46.5499L21.7296 45.0198L23.2657 43.1697L25.1098 44.7098L23.5747 46.5499ZM27.3259 41.9996C27.2259 41.8296 27.0999 41.6796 26.9519 41.5596L26.0298 40.7896C25.2658 40.1595 24.1307 40.2595 23.4947 41.0196L22.6806 41.9996H18.6004V17.9982H38.2616L35.0764 21.4384C35.0314 21.4884 34.9954 21.5484 34.9704 21.6084C34.9624 21.6284 34.9574 21.6484 34.9514 21.6684C34.9494 21.6684 34.9464 21.6784 34.9434 21.6884C34.9394 21.6984 34.9344 21.7084 34.9324 21.7184L34.2153 25.1486C34.1483 25.4686 34.3563 25.7887 34.6804 25.8587C34.7774 25.8787 34.8764 25.8687 34.9714 25.8387L38.3316 24.8686C38.3396 24.8586 38.3476 24.8586 38.3546 24.8586C38.3616 24.8486 38.3686 24.8486 38.3756 24.8486C38.3906 24.8386 38.4056 24.8286 38.4216 24.8286C38.4896 24.7886 38.5506 24.7486 38.6016 24.6986L43.2019 19.7283V38.3394L39.7157 41.9996H27.3259ZM46.8021 46.7999H36.8015L46.8021 36.2993V46.7999ZM40.2477 45.2298C40.3407 45.4498 40.5597 45.5999 40.8017 45.5999H45.002C45.334 45.5999 45.602 45.3298 45.602 44.9998V40.7996C45.602 40.4695 45.333 40.1995 45.002 40.1995C44.843 40.1995 44.69 40.2595 44.578 40.3795L40.3777 44.5698C40.2057 44.7498 40.1547 44.9998 40.2477 45.2298ZM44.402 42.2497V44.3998H42.2508L44.402 42.2497ZM34.2013 34.7992H38.4016C38.7326 34.7992 39.0016 35.0692 39.0016 35.3992C39.0016 35.7293 38.7326 35.9993 38.4016 35.9993H21.6006C21.2696 35.9993 21.0005 35.7293 21.0005 35.3992C21.0005 35.0692 21.2696 34.7992 21.6006 34.7992H25.8008V28.1988C25.8008 28.0388 25.8638 27.8888 25.9758 27.7688L29.5761 24.1686C29.8101 23.9385 30.1901 23.9385 30.4251 24.1686L34.0243 27.7688C34.1373 27.8888 34.2003 28.0388 34.2013 28.1988V34.7992ZM32.1532 27.5988L30.0011 25.4486L27.849 27.5988H32.1532ZM33.0013 34.7992V28.7988H27.0009V34.7992H33.0013ZM29.4001 21.5984H30.6011V22.7985H29.4001V21.5984ZM30.6011 37.1993H29.4001V38.3994H30.6011V37.1993Z" fill="#1C57C9"/>
<mask id="mask0_83_1312" style="mask-type:alpha" maskUnits="userSpaceOnUse" x="12" y="12" width="37" height="36">
<path fill-rule="evenodd" clip-rule="evenodd" d="M47.6252 34.2392C47.3961 34.1492 47.1351 34.2092 46.9651 34.3892L44.402 37.0793V21.0784H44.405L46.8501 18.4382C47.0751 18.1982 47.0601 17.8182 46.8171 17.5882H46.8161L45.9361 16.7681L47.1591 15.448C47.3841 15.208 47.3691 14.828 47.1251 14.608L44.485 12.1578C44.2419 11.9378 43.8629 11.9478 43.6379 12.1878L39.3717 16.7981H18.6004C18.5984 15.138 17.2563 13.7979 15.6002 13.7979H15.0002C13.3441 13.7979 12.002 15.138 12 16.7981V42.5997C12 42.9297 12.269 43.1997 12.6 43.1997H21.6836L20.4235 44.7098C20.2115 44.9698 20.2465 45.3498 20.5005 45.5599L23.2677 47.86C23.5217 48.07 23.9007 48.04 24.1127 47.78L27.1839 44.0898C27.3959 43.8397 27.5329 43.5297 27.5779 43.1997H38.5726L34.9664 46.9899C34.7384 47.23 34.7474 47.61 34.9874 47.83C35.0994 47.94 35.2474 48 35.4014 48H47.4021C47.7332 48 48.0022 47.73 48.0022 47.4V34.7992C48.0022 34.5492 47.8532 34.3292 47.6252 34.2392ZM45.562 18.0582L44.402 19.3083V18.4282L45.122 17.6482L45.562 18.0582ZM43.2019 17.9482V17.9582L38.1276 23.4385L36.3655 21.8084L42.4778 15.208L44.2409 16.8381L43.2089 17.9482H43.2019ZM36.9745 24.0086L35.5944 24.4186L35.8894 23.0085L36.9745 24.0086ZM44.1089 13.4479L45.87 15.078L45.055 15.9581L43.2929 14.328L44.1089 13.4479ZM15.0002 14.998H15.6002C16.5943 14.998 17.4003 15.8081 17.4003 16.7981V39.6095C16.8843 39.2195 16.2513 38.9995 15.6002 38.9995H15.0002C14.3491 38.9995 13.7161 39.2195 13.2001 39.6095V16.7981C13.2001 15.8081 14.0061 14.998 15.0002 14.998ZM15.0002 40.1995H15.6002C16.5943 40.1995 17.4003 41.0096 17.4003 41.9996H13.2001C13.2001 41.0096 14.0061 40.1995 15.0002 40.1995ZM26.2619 43.3297L25.8778 43.7897L24.0337 42.2497L24.4168 41.7896C24.6298 41.5396 25.0078 41.4996 25.2618 41.7096H25.2628L26.1849 42.4797C26.4399 42.6897 26.4749 43.0697 26.2629 43.3197H26.2619V43.3297ZM23.5747 46.5499L21.7296 45.0198L23.2657 43.1697L25.1098 44.7098L23.5747 46.5499ZM27.3259 41.9996C27.2259 41.8296 27.0999 41.6796 26.9519 41.5596L26.0298 40.7896C25.2658 40.1595 24.1307 40.2595 23.4947 41.0196L22.6806 41.9996H18.6004V17.9982H38.2616L35.0764 21.4384C35.0314 21.4884 34.9954 21.5484 34.9704 21.6084C34.9624 21.6284 34.9574 21.6484 34.9514 21.6684C34.9494 21.6684 34.9464 21.6784 34.9434 21.6884C34.9394 21.6984 34.9344 21.7084 34.9324 21.7184L34.2153 25.1486C34.1483 25.4686 34.3563 25.7887 34.6804 25.8587C34.7774 25.8787 34.8764 25.8687 34.9714 25.8387L38.3316 24.8686C38.3396 24.8586 38.3476 24.8586 38.3546 24.8586C38.3616 24.8486 38.3686 24.8486 38.3756 24.8486C38.3906 24.8386 38.4056 24.8286 38.4216 24.8286C38.4896 24.7886 38.5506 24.7486 38.6016 24.6986L43.2019 19.7283V38.3394L39.7157 41.9996H27.3259ZM46.8021 46.7999H36.8015L46.8021 36.2993V46.7999ZM40.2477 45.2298C40.3407 45.4498 40.5597 45.5999 40.8017 45.5999H45.002C45.334 45.5999 45.602 45.3298 45.602 44.9998V40.7996C45.602 40.4695 45.333 40.1995 45.002 40.1995C44.843 40.1995 44.69 40.2595 44.578 40.3795L40.3777 44.5698C40.2057 44.7498 40.1547 44.9998 40.2477 45.2298ZM44.402 42.2497V44.3998H42.2508L44.402 42.2497ZM34.2013 34.7992H38.4016C38.7326 34.7992 39.0016 35.0692 39.0016 35.3992C39.0016 35.7293 38.7326 35.9993 38.4016 35.9993H21.6006C21.2696 35.9993 21.0005 35.7293 21.0005 35.3992C21.0005 35.0692 21.2696 34.7992 21.6006 34.7992H25.8008V28.1988C25.8008 28.0388 25.8638 27.8888 25.9758 27.7688L29.5761 24.1686C29.8101 23.9385 30.1901 23.9385 30.4251 24.1686L34.0243 27.7688C34.1373 27.8888 34.2003 28.0388 34.2013 28.1988V34.7992ZM32.1532 27.5988L30.0011 25.4486L27.849 27.5988H32.1532ZM33.0013 34.7992V28.7988H27.0009V34.7992H33.0013ZM29.4001 21.5984H30.6011V22.7985H29.4001V21.5984ZM30.6011 37.1993H29.4001V38.3994H30.6011V37.1993Z" fill="white"/>
</mask>
<g mask="url(#mask0_83_1312)">
<rect x="12" y="12" width="36" height="36" fill="#2053D1"/>
</g>
</svg>
