<svg width="55" height="55" viewBox="0 0 55 55" fill="none" xmlns="http://www.w3.org/2000/svg">
<rect width="55" height="55" rx="24" fill="#FCF3F4"/>
<path fill-rule="evenodd" clip-rule="evenodd" d="M26.7969 11.6909C26.7969 11.3094 27.1114 11 27.5 11C27.8886 11 28.2031 11.3094 28.2031 11.6909V17.1875C28.2031 17.5691 27.8886 17.8784 27.5 17.8784C27.1114 17.8784 26.7969 17.5691 26.7969 17.1875V11.6909ZM20.0427 19.9203L16.0647 16.0325C15.7905 15.7644 15.3447 15.7644 15.0705 16.0325C14.7962 16.3006 14.7962 16.7337 15.0705 17.0019L19.0474 20.9C19.3227 21.1681 19.7674 21.1681 20.0427 20.9C20.3169 20.6319 20.3169 20.1884 20.0427 19.9203ZM38.9353 16.0325C39.2106 15.7644 39.6553 15.7644 39.9295 16.0325C40.2048 16.3006 40.2048 16.7337 39.9295 17.0019L35.9526 20.9C35.6773 21.1681 35.2326 21.1681 34.9584 20.9C34.6831 20.6319 34.6831 20.1884 34.9584 19.9203L38.9353 16.0325ZM37.9104 38.5034H38.75C39.9126 38.5034 40.8592 39.4213 40.8592 40.5659V43.3091C40.8592 43.6906 40.5447 44 40.1561 44H14.8439C14.4553 44 14.1408 43.6906 14.1408 43.3091V40.5659C14.1408 39.4213 15.0874 38.5034 16.25 38.5034H17.0896L19.3788 25.9531C19.8045 23.6638 21.8416 22.0034 24.2219 22.0034H30.7781C33.1584 22.0034 35.1945 23.6638 35.6212 25.9531L37.9104 38.5034ZM24.2219 23.375C22.5214 23.375 21.0666 24.5609 20.7638 26.2006L18.518 38.5034H36.482L34.2373 26.2006C33.9334 24.5609 32.4786 23.375 30.7781 23.375H24.2219ZM15.5469 42.6284H39.4531V40.5659C39.4531 40.1844 39.1375 39.875 38.75 39.875H16.25C15.8625 39.875 15.5469 40.1844 15.5469 40.5659V42.6284ZM31.7184 28.1909C31.7184 27.8094 32.0339 27.5 32.4214 27.5C32.81 27.5 33.1245 27.8094 33.1245 28.1909C33.1245 28.5622 32.81 28.8716 32.4214 28.8716C32.0339 28.8716 31.7184 28.5622 31.7184 28.1909ZM34.6884 36.3172L33.6571 30.7588C33.5882 30.3875 33.2208 30.14 32.8396 30.2122C32.4574 30.2741 32.2044 30.635 32.2732 31.0063L33.3055 36.5647C33.3754 36.9359 33.7439 37.1834 34.1229 37.1112C34.5041 37.0494 34.7582 36.6884 34.6884 36.3172ZM38.75 27.5H44.7969C45.1855 27.5 45.5 27.8094 45.5 28.1909C45.5 28.5622 45.1855 28.8716 44.7969 28.8716H38.75C38.3614 28.8716 38.0469 28.5622 38.0469 28.1909C38.0469 27.8094 38.3614 27.5 38.75 27.5ZM16.25 27.5H10.2031C9.81447 27.5 9.5 27.8094 9.5 28.1909C9.5 28.5622 9.81447 28.8716 10.2031 28.8716H16.25C16.6386 28.8716 16.9531 28.5622 16.9531 28.1909C16.9531 27.8094 16.6386 27.5 16.25 27.5Z" fill="#D62642"/>
<mask id="mask0_48_455" style="mask-type:alpha" maskUnits="userSpaceOnUse" x="9" y="11" width="37" height="33">
<path fill-rule="evenodd" clip-rule="evenodd" d="M26.7969 11.6909C26.7969 11.3094 27.1114 11 27.5 11C27.8886 11 28.2031 11.3094 28.2031 11.6909V17.1875C28.2031 17.5691 27.8886 17.8784 27.5 17.8784C27.1114 17.8784 26.7969 17.5691 26.7969 17.1875V11.6909ZM20.0427 19.9203L16.0647 16.0325C15.7905 15.7644 15.3447 15.7644 15.0705 16.0325C14.7962 16.3006 14.7962 16.7337 15.0705 17.0019L19.0474 20.9C19.3227 21.1681 19.7674 21.1681 20.0427 20.9C20.3169 20.6319 20.3169 20.1884 20.0427 19.9203ZM38.9353 16.0325C39.2106 15.7644 39.6553 15.7644 39.9295 16.0325C40.2048 16.3006 40.2048 16.7337 39.9295 17.0019L35.9526 20.9C35.6773 21.1681 35.2326 21.1681 34.9584 20.9C34.6831 20.6319 34.6831 20.1884 34.9584 19.9203L38.9353 16.0325ZM37.9104 38.5034H38.75C39.9126 38.5034 40.8592 39.4213 40.8592 40.5659V43.3091C40.8592 43.6906 40.5447 44 40.1561 44H14.8439C14.4553 44 14.1408 43.6906 14.1408 43.3091V40.5659C14.1408 39.4213 15.0874 38.5034 16.25 38.5034H17.0896L19.3788 25.9531C19.8045 23.6638 21.8416 22.0034 24.2219 22.0034H30.7781C33.1584 22.0034 35.1945 23.6638 35.6212 25.9531L37.9104 38.5034ZM24.2219 23.375C22.5214 23.375 21.0666 24.5609 20.7638 26.2006L18.518 38.5034H36.482L34.2373 26.2006C33.9334 24.5609 32.4786 23.375 30.7781 23.375H24.2219ZM15.5469 42.6284H39.4531V40.5659C39.4531 40.1844 39.1375 39.875 38.75 39.875H16.25C15.8625 39.875 15.5469 40.1844 15.5469 40.5659V42.6284ZM31.7184 28.1909C31.7184 27.8094 32.0339 27.5 32.4214 27.5C32.81 27.5 33.1245 27.8094 33.1245 28.1909C33.1245 28.5622 32.81 28.8716 32.4214 28.8716C32.0339 28.8716 31.7184 28.5622 31.7184 28.1909ZM34.6884 36.3172L33.6571 30.7588C33.5882 30.3875 33.2208 30.14 32.8396 30.2122C32.4574 30.2741 32.2044 30.635 32.2732 31.0063L33.3055 36.5647C33.3754 36.9359 33.7439 37.1834 34.1229 37.1112C34.5041 37.0494 34.7582 36.6884 34.6884 36.3172ZM38.75 27.5H44.7969C45.1855 27.5 45.5 27.8094 45.5 28.1909C45.5 28.5622 45.1855 28.8716 44.7969 28.8716H38.75C38.3614 28.8716 38.0469 28.5622 38.0469 28.1909C38.0469 27.8094 38.3614 27.5 38.75 27.5ZM16.25 27.5H10.2031C9.81447 27.5 9.5 27.8094 9.5 28.1909C9.5 28.5622 9.81447 28.8716 10.2031 28.8716H16.25C16.6386 28.8716 16.9531 28.5622 16.9531 28.1909C16.9531 27.8094 16.6386 27.5 16.25 27.5Z" fill="white"/>
</mask>
<g mask="url(#mask0_48_455)">
<rect x="9.5" y="9.5" width="36" height="36" fill="#FA4949"/>
</g>
</svg>
