<svg width="55" height="56" viewBox="0 0 55 56" fill="none" xmlns="http://www.w3.org/2000/svg">
<rect y="0.5" width="55" height="55" rx="24" fill="#F4F7FD"/>
<path fill-rule="evenodd" clip-rule="evenodd" d="M43.7618 10.1084C44.2253 10.0782 44.6816 10.2489 45.0129 10.5752C45.344 10.9016 45.5209 11.355 45.4979 11.8193L45.4811 12.1629C45.1777 18.3615 42.1917 24.0985 37.2889 27.9032L35.6529 29.1726V33.0395C35.6529 36.2506 34.4026 39.2694 32.132 41.54L27.985 45.6869C27.8501 45.8219 27.6696 45.8938 27.4857 45.8938C27.4006 45.8938 27.315 45.8783 27.2326 45.8467C26.9723 45.7466 26.7953 45.5026 26.781 45.224L26.328 36.4089L25.8469 36.7823C25.7204 36.8804 25.5677 36.9305 25.414 36.9305C25.2985 36.9305 25.1826 36.9022 25.0768 36.8447C24.8678 36.731 24.6618 36.6123 24.4584 36.4899C24.1176 36.7704 23.753 37.0746 23.3965 37.3721L23.3777 37.3878C22.8835 37.8001 22.3738 38.2254 21.931 38.5846C21.8028 38.6886 21.6451 38.7423 21.4862 38.7423C21.3836 38.7423 21.2805 38.72 21.1843 38.6745C20.2001 38.2086 19.3188 37.5872 18.5652 36.8273C17.8295 36.0855 17.226 35.2222 16.7713 34.2614C16.6532 34.0116 16.6915 33.7159 16.8695 33.5046L18.9512 31.0333C18.8008 30.7885 18.6567 30.5397 18.5192 30.2868C18.3824 30.0355 18.411 29.7266 18.5913 29.5045L18.9492 29.0638L10.1711 28.6128C9.89254 28.5986 9.64855 28.4216 9.54843 28.1612C9.4483 27.9009 9.51095 27.6059 9.70818 27.4087L13.8551 23.2618C16.1257 20.9912 19.1445 19.7408 22.3556 19.7408C22.3624 19.7408 22.3693 19.7409 22.3762 19.7411L26.425 19.86L27.9722 17.9553C31.6955 13.3713 37.211 10.5265 43.1045 10.1503L43.7618 10.1084ZM14.8534 24.2601L11.8291 27.2844L20.0514 27.7068L25.3045 21.2395L22.3454 21.1526C19.5153 21.1553 16.8548 22.2587 14.8534 24.2601ZM22.492 36.2881L22.4586 36.316C22.1007 36.6145 21.7351 36.9195 21.3952 37.1991C20.7171 36.8319 20.1037 36.3736 19.5676 35.8331C19.0484 35.3096 18.6065 34.7136 18.2502 34.057L19.7743 32.2476C20.2351 32.8659 20.7395 33.4515 21.2844 34.0002L21.2857 34.0014L21.2861 34.0019L21.2867 34.0024C21.8909 34.6105 22.5408 35.1685 23.2303 35.6731C22.9936 35.8695 22.7514 36.0717 22.5126 36.2709L22.492 36.2881ZM31.1338 40.5417C33.1378 38.5377 34.2413 35.8734 34.2413 33.0395H34.2413V30.2683L27.6875 35.354L28.1095 43.566L31.1338 40.5417ZM44.0712 12.0939C43.7879 17.8804 41.0005 23.2361 36.4236 26.7878L25.3521 35.3792C24.434 34.8427 23.5782 34.2093 22.795 33.4916L26.5276 29.759C26.8033 29.4834 26.8033 29.0363 26.5276 28.7606C26.2519 28.4849 25.805 28.4849 25.5293 28.7606L21.8002 32.4897C21.1146 31.7307 20.5073 30.9048 19.9903 30.0215L29.0681 18.8454C32.5438 14.5662 37.6926 11.9105 43.1944 11.5594L43.8516 11.5175C43.9378 11.5121 43.9954 11.5549 44.022 11.581C44.0485 11.6071 44.0923 11.6639 44.0881 11.7504L44.0712 12.0939ZM37.5182 18.2992C36.9507 17.7316 36.1962 17.4191 35.3936 17.4191C34.5911 17.4191 33.8365 17.7317 33.2691 18.2992C32.0976 19.4707 32.0976 21.3769 33.2691 22.5484C33.8549 23.1341 34.6241 23.4269 35.3936 23.4269C36.1629 23.4269 36.9325 23.134 37.5182 22.5484C38.6897 21.3768 38.6897 19.4706 37.5182 18.2992ZM36.5199 21.55C35.8989 22.171 34.8883 22.171 34.2673 21.55C33.6463 20.929 33.6463 19.9185 34.2673 19.2974C34.5682 18.9965 34.9682 18.8309 35.3936 18.8309C35.8191 18.8309 36.219 18.9965 36.5199 19.2974C37.1409 19.9185 37.1409 20.929 36.5199 21.55ZM28.9798 27.2483C28.9798 27.6381 28.6638 27.9542 28.2739 27.9542C27.884 27.9542 27.568 27.6381 27.568 27.2483C27.568 26.8584 27.884 26.5423 28.2739 26.5423C28.6638 26.5423 28.9798 26.8584 28.9798 27.2483ZM10.9148 45.1877C10.9148 45.5783 10.5981 45.895 10.2075 45.895C9.81681 45.895 9.50012 45.5783 9.50012 45.1877C9.50012 44.797 9.81681 44.4803 10.2075 44.4803C10.5981 44.4803 10.9148 44.797 10.9148 45.1877ZM18.3179 38.9301C17.9689 38.7563 17.5452 38.8984 17.3714 39.2474L16.5306 40.9359C16.165 41.6701 15.4296 42.161 14.6113 42.217L13.6334 42.2839C13.4681 42.2949 13.3594 42.2126 13.3092 42.1623C13.2589 42.112 13.1763 42.0031 13.1876 41.838L13.2545 40.8601C13.3106 40.0419 13.8015 39.3065 14.5356 38.9409L16.224 38.1001C16.5731 37.9263 16.7151 37.5025 16.5413 37.1535C16.3675 36.8046 15.9438 36.6625 15.5947 36.8363L13.9063 37.6771C12.7256 38.265 11.9361 39.4477 11.846 40.7637L11.779 41.7415C11.7429 42.2693 11.9367 42.7866 12.3107 43.1606C12.6551 43.505 13.1209 43.6967 13.6047 43.6967C13.6462 43.6967 13.6881 43.6953 13.7298 43.6924L14.7077 43.6255C16.0237 43.5354 17.2064 42.746 17.7943 41.5652L18.6351 39.8767C18.8089 39.5276 18.6669 39.1039 18.3179 38.9301Z" fill="black"/>
<mask id="mask0_11_2563" style="mask-type:alpha" maskUnits="userSpaceOnUse" x="9" y="10" width="37" height="36">
<path fill-rule="evenodd" clip-rule="evenodd" d="M43.7618 10.1084C44.2253 10.0782 44.6816 10.2489 45.0129 10.5752C45.344 10.9016 45.5209 11.355 45.4979 11.8193L45.4811 12.1629C45.1777 18.3615 42.1917 24.0985 37.2889 27.9032L35.6529 29.1726V33.0395C35.6529 36.2506 34.4026 39.2694 32.132 41.54L27.985 45.6869C27.8501 45.8219 27.6696 45.8938 27.4857 45.8938C27.4006 45.8938 27.315 45.8783 27.2326 45.8467C26.9723 45.7466 26.7953 45.5026 26.781 45.224L26.328 36.4089L25.8469 36.7823C25.7204 36.8804 25.5677 36.9305 25.414 36.9305C25.2985 36.9305 25.1826 36.9022 25.0768 36.8447C24.8678 36.731 24.6618 36.6123 24.4584 36.4899C24.1176 36.7704 23.753 37.0746 23.3965 37.3721L23.3777 37.3878C22.8835 37.8001 22.3738 38.2254 21.931 38.5846C21.8028 38.6886 21.6451 38.7423 21.4862 38.7423C21.3836 38.7423 21.2805 38.72 21.1843 38.6745C20.2001 38.2086 19.3188 37.5872 18.5652 36.8273C17.8295 36.0855 17.226 35.2222 16.7713 34.2614C16.6532 34.0116 16.6915 33.7159 16.8695 33.5046L18.9512 31.0333C18.8008 30.7885 18.6567 30.5397 18.5192 30.2868C18.3824 30.0355 18.411 29.7266 18.5913 29.5045L18.9492 29.0638L10.1711 28.6128C9.89254 28.5986 9.64855 28.4216 9.54843 28.1612C9.4483 27.9009 9.51095 27.6059 9.70818 27.4087L13.8551 23.2618C16.1257 20.9912 19.1445 19.7408 22.3556 19.7408C22.3624 19.7408 22.3693 19.7409 22.3762 19.7411L26.425 19.86L27.9722 17.9553C31.6955 13.3713 37.211 10.5265 43.1045 10.1503L43.7618 10.1084ZM14.8534 24.2601L11.8291 27.2844L20.0514 27.7068L25.3045 21.2395L22.3454 21.1526C19.5153 21.1553 16.8548 22.2587 14.8534 24.2601ZM22.492 36.2881L22.4586 36.316C22.1007 36.6145 21.7351 36.9195 21.3952 37.1991C20.7171 36.8319 20.1037 36.3736 19.5676 35.8331C19.0484 35.3096 18.6065 34.7136 18.2502 34.057L19.7743 32.2476C20.2351 32.8659 20.7395 33.4515 21.2844 34.0002L21.2857 34.0014L21.2861 34.0019L21.2867 34.0024C21.8909 34.6105 22.5408 35.1685 23.2303 35.6731C22.9936 35.8695 22.7514 36.0717 22.5126 36.2709L22.492 36.2881ZM31.1338 40.5417C33.1378 38.5377 34.2413 35.8734 34.2413 33.0395H34.2413V30.2683L27.6875 35.354L28.1095 43.566L31.1338 40.5417ZM44.0712 12.0939C43.7879 17.8804 41.0005 23.2361 36.4236 26.7878L25.3521 35.3792C24.434 34.8427 23.5782 34.2093 22.795 33.4916L26.5276 29.759C26.8033 29.4834 26.8033 29.0363 26.5276 28.7606C26.2519 28.4849 25.805 28.4849 25.5293 28.7606L21.8002 32.4897C21.1146 31.7307 20.5073 30.9048 19.9903 30.0215L29.0681 18.8454C32.5438 14.5662 37.6926 11.9105 43.1944 11.5594L43.8516 11.5175C43.9378 11.5121 43.9954 11.5549 44.022 11.581C44.0485 11.6071 44.0923 11.6639 44.0881 11.7504L44.0712 12.0939ZM37.5182 18.2992C36.9507 17.7316 36.1962 17.4191 35.3936 17.4191C34.5911 17.4191 33.8365 17.7317 33.2691 18.2992C32.0976 19.4707 32.0976 21.3769 33.2691 22.5484C33.8549 23.1341 34.6241 23.4269 35.3936 23.4269C36.1629 23.4269 36.9325 23.134 37.5182 22.5484C38.6897 21.3768 38.6897 19.4706 37.5182 18.2992ZM36.5199 21.55C35.8989 22.171 34.8883 22.171 34.2673 21.55C33.6463 20.929 33.6463 19.9185 34.2673 19.2974C34.5682 18.9965 34.9682 18.8309 35.3936 18.8309C35.8191 18.8309 36.219 18.9965 36.5199 19.2974C37.1409 19.9185 37.1409 20.929 36.5199 21.55ZM28.9798 27.2483C28.9798 27.6381 28.6638 27.9542 28.2739 27.9542C27.884 27.9542 27.568 27.6381 27.568 27.2483C27.568 26.8584 27.884 26.5423 28.2739 26.5423C28.6638 26.5423 28.9798 26.8584 28.9798 27.2483ZM10.9148 45.1877C10.9148 45.5783 10.5981 45.895 10.2075 45.895C9.81681 45.895 9.50012 45.5783 9.50012 45.1877C9.50012 44.797 9.81681 44.4803 10.2075 44.4803C10.5981 44.4803 10.9148 44.797 10.9148 45.1877ZM18.3179 38.9301C17.9689 38.7563 17.5452 38.8984 17.3714 39.2474L16.5306 40.9359C16.165 41.6701 15.4296 42.161 14.6113 42.217L13.6334 42.2839C13.4681 42.2949 13.3594 42.2126 13.3092 42.1623C13.2589 42.112 13.1763 42.0031 13.1876 41.838L13.2545 40.8601C13.3106 40.0419 13.8015 39.3065 14.5356 38.9409L16.224 38.1001C16.5731 37.9263 16.7151 37.5025 16.5413 37.1535C16.3675 36.8046 15.9438 36.6625 15.5947 36.8363L13.9063 37.6771C12.7256 38.265 11.9361 39.4477 11.846 40.7637L11.779 41.7415C11.7429 42.2693 11.9367 42.7866 12.3107 43.1606C12.6551 43.505 13.1209 43.6967 13.6047 43.6967C13.6462 43.6967 13.6881 43.6953 13.7298 43.6924L14.7077 43.6255C16.0237 43.5354 17.2064 42.746 17.7943 41.5652L18.6351 39.8767C18.8089 39.5276 18.6669 39.1039 18.3179 38.9301Z" fill="white"/>
</mask>
<g mask="url(#mask0_11_2563)">
<rect x="9.5" y="10" width="36" height="36" fill="#2E80DD"/>
</g>
</svg>
