<svg width="55" height="55" viewBox="0 0 55 55" fill="none" xmlns="http://www.w3.org/2000/svg">
<rect width="55" height="55" rx="24" fill="#F4F7FD"/>
<path fill-rule="evenodd" clip-rule="evenodd" d="M41.8995 26.0271C43.7418 26.2918 45.1923 27.7212 45.457 29.5424C45.7853 31.8082 44.1971 33.9152 41.8995 34.2435C39.6019 34.5717 37.4736 32.9941 37.1454 30.7282C36.8066 28.4624 38.4054 26.3554 40.703 26.0271V24.9472C40.703 22.6284 38.9454 20.7437 36.796 20.7437C34.7102 20.7437 32.9631 22.5754 32.8996 24.8201V36.4776C32.8996 40.8716 29.5326 44.4398 25.4033 44.4398C21.2633 44.4398 17.8963 40.8716 17.8963 36.4776V35.4717C17.0281 35.4717 16.0964 34.847 16.0964 33.1V31.607C12.2529 30.6329 9.5 27.3612 9.5 23.6554V22.4166H10.6965V14.7085C10.707 13.2685 11.7553 12.0403 13.1952 11.7968C13.3646 11.2886 13.7458 10.8756 14.254 10.685C15.1858 10.325 16.234 10.7697 16.594 11.6909C16.9646 12.6121 16.5093 13.6497 15.5775 14.0097C14.6458 14.3697 13.5976 13.9144 13.227 13.0038C12.4435 13.205 11.9035 13.9038 11.9035 14.7085V22.4166H13.7035V23.6766C13.7458 25.7413 15.1434 27.5306 17.1446 28.1024C18.2246 28.4412 19.3681 28.4412 20.4481 28.1024C22.4492 27.5306 23.8468 25.7413 23.8998 23.6766V22.4166H25.0962L25.075 14.7085C25.0644 13.9144 24.535 13.2262 23.7621 13.0038C23.5715 13.4909 23.1586 13.872 22.661 14.0309C21.7186 14.3379 20.7128 13.8297 20.4057 12.8979C20.0986 11.9662 20.6069 10.9709 21.5492 10.6639C22.4915 10.3568 23.4974 10.865 23.8045 11.7968C25.2233 12.0509 26.2609 13.2685 26.2715 14.6979L26.3032 22.4166H27.4997V23.6554C27.4997 27.3612 24.7468 30.6329 20.9033 31.607V33.1C20.9033 34.847 19.9716 35.4717 19.1034 35.4717V36.4776C19.1034 40.2151 21.9304 43.2539 25.4033 43.2539C28.8761 43.2539 31.7032 40.2151 31.7032 36.4776V24.7883H31.7349H31.7032C31.7773 21.8978 34.0643 19.5472 36.796 19.5472C39.6124 19.5472 41.8995 21.9719 41.8995 24.9472V26.0271ZM21.4963 12.3368C21.4963 12.665 21.7716 12.9297 22.0998 12.9297C22.428 12.9297 22.7033 12.665 22.7033 12.3368C22.7033 12.0085 22.428 11.7438 22.0998 11.7438C21.7716 11.7438 21.4963 12.0085 21.4963 12.3368ZM15.5034 12.3368C15.5034 12.0085 15.2281 11.7438 14.8999 11.7438C14.5717 11.7438 14.2964 12.0085 14.2964 12.3368C14.2964 12.665 14.5717 12.9297 14.8999 12.9297C15.2281 12.9297 15.5034 12.665 15.5034 12.3368ZM10.6965 23.6025V23.6554C10.6965 26.9589 13.2693 29.86 16.8163 30.5588C17.0916 30.6118 17.3669 30.6541 17.6528 30.6859C18.4893 30.7706 19.3469 30.7282 20.1834 30.5588C23.7304 29.86 26.3032 26.9589 26.3032 23.6554V23.6025H25.0962V23.6766C25.0539 26.2495 23.3174 28.5047 20.808 29.2247C19.5057 29.6377 18.0975 29.6377 16.7846 29.2247C14.2752 28.5047 12.5494 26.2495 12.4964 23.6766V23.6025H10.6965ZM17.3034 33.1C17.3034 33.4494 17.3563 34.2858 17.8963 34.2858H19.1034C19.6434 34.2858 19.6963 33.4494 19.6963 33.1V31.84C19.6751 31.84 19.6434 31.84 19.6222 31.8506C19.601 31.8506 19.5798 31.8506 19.5587 31.8506C19.5163 31.8612 19.474 31.8612 19.4316 31.8612C19.4104 31.8612 19.3892 31.8717 19.3681 31.8717C19.0928 31.8929 18.8069 31.9141 18.5104 31.9141H18.4893C18.1928 31.9141 17.9069 31.8929 17.621 31.8717C17.6105 31.8717 17.5999 31.8612 17.5787 31.8612C17.5363 31.8612 17.494 31.8612 17.441 31.8506C17.4305 31.8506 17.4093 31.8506 17.3881 31.8506C17.3563 31.84 17.3246 31.84 17.3034 31.84V33.1ZM38.2995 30.1353C38.2995 31.7659 39.6442 33.1 41.2959 33.1C42.9583 33.1 44.2924 31.7659 44.303 30.1353C44.303 28.4942 42.9583 27.1706 41.2959 27.1706C39.6442 27.1706 38.2995 28.4942 38.2995 30.1353ZM39.496 30.1353C39.496 29.1506 40.3007 28.3565 41.2959 28.3565C42.2912 28.3565 43.0959 29.1506 43.0959 30.1353C43.0959 31.1094 42.2912 31.9141 41.2959 31.9141C40.3007 31.9141 39.496 31.1094 39.496 30.1353ZM40.703 30.1353C40.703 30.4635 40.9677 30.7282 41.2959 30.7282C41.6348 30.7282 41.8995 30.4635 41.8995 30.1353C41.8995 29.8071 41.6348 29.5424 41.2959 29.5424C40.9677 29.5424 40.703 29.8071 40.703 30.1353Z" fill="#2682D6"/>
<mask id="mask0_11_2587" style="mask-type:alpha" maskUnits="userSpaceOnUse" x="9" y="10" width="37" height="35">
<path fill-rule="evenodd" clip-rule="evenodd" d="M41.8995 26.0271C43.7418 26.2918 45.1923 27.7212 45.457 29.5424C45.7853 31.8082 44.1971 33.9152 41.8995 34.2435C39.6019 34.5717 37.4736 32.9941 37.1454 30.7282C36.8066 28.4624 38.4054 26.3554 40.703 26.0271V24.9472C40.703 22.6284 38.9454 20.7437 36.796 20.7437C34.7102 20.7437 32.9631 22.5754 32.8996 24.8201V36.4776C32.8996 40.8716 29.5326 44.4398 25.4033 44.4398C21.2633 44.4398 17.8963 40.8716 17.8963 36.4776V35.4717C17.0281 35.4717 16.0964 34.847 16.0964 33.1V31.607C12.2529 30.6329 9.5 27.3612 9.5 23.6554V22.4166H10.6965V14.7085C10.707 13.2685 11.7553 12.0403 13.1952 11.7968C13.3646 11.2886 13.7458 10.8756 14.254 10.685C15.1858 10.325 16.234 10.7697 16.594 11.6909C16.9646 12.6121 16.5093 13.6497 15.5775 14.0097C14.6458 14.3697 13.5976 13.9144 13.227 13.0038C12.4435 13.205 11.9035 13.9038 11.9035 14.7085V22.4166H13.7035V23.6766C13.7458 25.7413 15.1434 27.5306 17.1446 28.1024C18.2246 28.4412 19.3681 28.4412 20.4481 28.1024C22.4492 27.5306 23.8468 25.7413 23.8998 23.6766V22.4166H25.0962L25.075 14.7085C25.0644 13.9144 24.535 13.2262 23.7621 13.0038C23.5715 13.4909 23.1586 13.872 22.661 14.0309C21.7186 14.3379 20.7128 13.8297 20.4057 12.8979C20.0986 11.9662 20.6069 10.9709 21.5492 10.6639C22.4915 10.3568 23.4974 10.865 23.8045 11.7968C25.2233 12.0509 26.2609 13.2685 26.2715 14.6979L26.3032 22.4166H27.4997V23.6554C27.4997 27.3612 24.7468 30.6329 20.9033 31.607V33.1C20.9033 34.847 19.9716 35.4717 19.1034 35.4717V36.4776C19.1034 40.2151 21.9304 43.2539 25.4033 43.2539C28.8761 43.2539 31.7032 40.2151 31.7032 36.4776V24.7883H31.7349H31.7032C31.7773 21.8978 34.0643 19.5472 36.796 19.5472C39.6124 19.5472 41.8995 21.9719 41.8995 24.9472V26.0271ZM21.4963 12.3368C21.4963 12.665 21.7716 12.9297 22.0998 12.9297C22.428 12.9297 22.7033 12.665 22.7033 12.3368C22.7033 12.0085 22.428 11.7438 22.0998 11.7438C21.7716 11.7438 21.4963 12.0085 21.4963 12.3368ZM15.5034 12.3368C15.5034 12.0085 15.2281 11.7438 14.8999 11.7438C14.5717 11.7438 14.2964 12.0085 14.2964 12.3368C14.2964 12.665 14.5717 12.9297 14.8999 12.9297C15.2281 12.9297 15.5034 12.665 15.5034 12.3368ZM10.6965 23.6025V23.6554C10.6965 26.9589 13.2693 29.86 16.8163 30.5588C17.0916 30.6118 17.3669 30.6541 17.6528 30.6859C18.4893 30.7706 19.3469 30.7282 20.1834 30.5588C23.7304 29.86 26.3032 26.9589 26.3032 23.6554V23.6025H25.0962V23.6766C25.0539 26.2495 23.3174 28.5047 20.808 29.2247C19.5057 29.6377 18.0975 29.6377 16.7846 29.2247C14.2752 28.5047 12.5494 26.2495 12.4964 23.6766V23.6025H10.6965ZM17.3034 33.1C17.3034 33.4494 17.3563 34.2858 17.8963 34.2858H19.1034C19.6434 34.2858 19.6963 33.4494 19.6963 33.1V31.84C19.6751 31.84 19.6434 31.84 19.6222 31.8506C19.601 31.8506 19.5798 31.8506 19.5587 31.8506C19.5163 31.8612 19.474 31.8612 19.4316 31.8612C19.4104 31.8612 19.3892 31.8717 19.3681 31.8717C19.0928 31.8929 18.8069 31.9141 18.5104 31.9141H18.4893C18.1928 31.9141 17.9069 31.8929 17.621 31.8717C17.6105 31.8717 17.5999 31.8612 17.5787 31.8612C17.5363 31.8612 17.494 31.8612 17.441 31.8506C17.4305 31.8506 17.4093 31.8506 17.3881 31.8506C17.3563 31.84 17.3246 31.84 17.3034 31.84V33.1ZM38.2995 30.1353C38.2995 31.7659 39.6442 33.1 41.2959 33.1C42.9583 33.1 44.2924 31.7659 44.303 30.1353C44.303 28.4942 42.9583 27.1706 41.2959 27.1706C39.6442 27.1706 38.2995 28.4942 38.2995 30.1353ZM39.496 30.1353C39.496 29.1506 40.3007 28.3565 41.2959 28.3565C42.2912 28.3565 43.0959 29.1506 43.0959 30.1353C43.0959 31.1094 42.2912 31.9141 41.2959 31.9141C40.3007 31.9141 39.496 31.1094 39.496 30.1353ZM40.703 30.1353C40.703 30.4635 40.9677 30.7282 41.2959 30.7282C41.6348 30.7282 41.8995 30.4635 41.8995 30.1353C41.8995 29.8071 41.6348 29.5424 41.2959 29.5424C40.9677 29.5424 40.703 29.8071 40.703 30.1353Z" fill="white"/>
</mask>
<g mask="url(#mask0_11_2587)">
<rect x="9.5" y="9.5" width="36" height="36" fill="#2E80DD"/>
</g>
</svg>
