<svg width="55" height="56" viewBox="0 0 55 56" fill="none" xmlns="http://www.w3.org/2000/svg">
<rect y="0.5" width="55" height="55" rx="24" fill="#FDF6E4"/>
<path fill-rule="evenodd" clip-rule="evenodd" d="M26.7969 12.6309C26.7969 12.2493 27.1114 11.9399 27.5 11.9399C27.8886 11.9399 28.2031 12.2493 28.2031 12.6309V18.1274C28.2031 18.509 27.8886 18.8184 27.5 18.8184C27.1114 18.8184 26.7969 18.509 26.7969 18.1274V12.6309ZM20.0427 20.8603L16.0647 16.9724C15.7905 16.7043 15.3447 16.7043 15.0705 16.9724C14.7962 17.2406 14.7962 17.6737 15.0705 17.9418L19.0474 21.8399C19.3227 22.1081 19.7674 22.1081 20.0427 21.8399C20.3169 21.5718 20.3169 21.1284 20.0427 20.8603ZM38.9353 16.9724C39.2106 16.7043 39.6553 16.7043 39.9295 16.9724C40.2048 17.2406 40.2048 17.6737 39.9295 17.9418L35.9526 21.8399C35.6773 22.1081 35.2326 22.1081 34.9584 21.8399C34.6831 21.5718 34.6831 21.1284 34.9584 20.8603L38.9353 16.9724ZM37.9104 39.4434H38.75C39.9126 39.4434 40.8592 40.3612 40.8592 41.5059V44.249C40.8592 44.6306 40.5447 44.9399 40.1561 44.9399H14.8439C14.4553 44.9399 14.1408 44.6306 14.1408 44.249V41.5059C14.1408 40.3612 15.0874 39.4434 16.25 39.4434H17.0896L19.3788 26.8931C19.8045 24.6037 21.8416 22.9434 24.2219 22.9434H30.7781C33.1584 22.9434 35.1945 24.6037 35.6212 26.8931L37.9104 39.4434ZM24.2219 24.3149C22.5214 24.3149 21.0666 25.5009 20.7638 27.1406L18.518 39.4434H36.482L34.2373 27.1406C33.9334 25.5009 32.4786 24.3149 30.7781 24.3149H24.2219ZM15.5469 43.5684H39.4531V41.5059C39.4531 41.1243 39.1375 40.8149 38.75 40.8149H16.25C15.8625 40.8149 15.5469 41.1243 15.5469 41.5059V43.5684ZM31.7184 29.1309C31.7184 28.7493 32.0339 28.4399 32.4214 28.4399C32.81 28.4399 33.1245 28.7493 33.1245 29.1309C33.1245 29.5021 32.81 29.8115 32.4214 29.8115C32.0339 29.8115 31.7184 29.5021 31.7184 29.1309ZM34.6884 37.2571L33.6571 31.6987C33.5882 31.3274 33.2208 31.0799 32.8396 31.1521C32.4574 31.214 32.2044 31.5749 32.2732 31.9462L33.3055 37.5046C33.3754 37.8759 33.7439 38.1234 34.1229 38.0512C34.5041 37.9893 34.7582 37.6284 34.6884 37.2571ZM38.75 28.4399H44.7969C45.1855 28.4399 45.5 28.7493 45.5 29.1309C45.5 29.5021 45.1855 29.8115 44.7969 29.8115H38.75C38.3614 29.8115 38.0469 29.5021 38.0469 29.1309C38.0469 28.7493 38.3614 28.4399 38.75 28.4399ZM16.25 28.4399H10.2031C9.81447 28.4399 9.5 28.7493 9.5 29.1309C9.5 29.5021 9.81447 29.8115 10.2031 29.8115H16.25C16.6386 29.8115 16.9531 29.5021 16.9531 29.1309C16.9531 28.7493 16.6386 28.4399 16.25 28.4399Z" fill="#D62642"/>
<mask id="mask0_11_2599" style="mask-type:alpha" maskUnits="userSpaceOnUse" x="9" y="11" width="37" height="34">
<path fill-rule="evenodd" clip-rule="evenodd" d="M26.7969 12.6309C26.7969 12.2493 27.1114 11.9399 27.5 11.9399C27.8886 11.9399 28.2031 12.2493 28.2031 12.6309V18.1274C28.2031 18.509 27.8886 18.8184 27.5 18.8184C27.1114 18.8184 26.7969 18.509 26.7969 18.1274V12.6309ZM20.0427 20.8603L16.0647 16.9724C15.7905 16.7043 15.3447 16.7043 15.0705 16.9724C14.7962 17.2406 14.7962 17.6737 15.0705 17.9418L19.0474 21.8399C19.3227 22.1081 19.7674 22.1081 20.0427 21.8399C20.3169 21.5718 20.3169 21.1284 20.0427 20.8603ZM38.9353 16.9724C39.2106 16.7043 39.6553 16.7043 39.9295 16.9724C40.2048 17.2406 40.2048 17.6737 39.9295 17.9418L35.9526 21.8399C35.6773 22.1081 35.2326 22.1081 34.9584 21.8399C34.6831 21.5718 34.6831 21.1284 34.9584 20.8603L38.9353 16.9724ZM37.9104 39.4434H38.75C39.9126 39.4434 40.8592 40.3612 40.8592 41.5059V44.249C40.8592 44.6306 40.5447 44.9399 40.1561 44.9399H14.8439C14.4553 44.9399 14.1408 44.6306 14.1408 44.249V41.5059C14.1408 40.3612 15.0874 39.4434 16.25 39.4434H17.0896L19.3788 26.8931C19.8045 24.6037 21.8416 22.9434 24.2219 22.9434H30.7781C33.1584 22.9434 35.1945 24.6037 35.6212 26.8931L37.9104 39.4434ZM24.2219 24.3149C22.5214 24.3149 21.0666 25.5009 20.7638 27.1406L18.518 39.4434H36.482L34.2373 27.1406C33.9334 25.5009 32.4786 24.3149 30.7781 24.3149H24.2219ZM15.5469 43.5684H39.4531V41.5059C39.4531 41.1243 39.1375 40.8149 38.75 40.8149H16.25C15.8625 40.8149 15.5469 41.1243 15.5469 41.5059V43.5684ZM31.7184 29.1309C31.7184 28.7493 32.0339 28.4399 32.4214 28.4399C32.81 28.4399 33.1245 28.7493 33.1245 29.1309C33.1245 29.5021 32.81 29.8115 32.4214 29.8115C32.0339 29.8115 31.7184 29.5021 31.7184 29.1309ZM34.6884 37.2571L33.6571 31.6987C33.5882 31.3274 33.2208 31.0799 32.8396 31.1521C32.4574 31.214 32.2044 31.5749 32.2732 31.9462L33.3055 37.5046C33.3754 37.8759 33.7439 38.1234 34.1229 38.0512C34.5041 37.9893 34.7582 37.6284 34.6884 37.2571ZM38.75 28.4399H44.7969C45.1855 28.4399 45.5 28.7493 45.5 29.1309C45.5 29.5021 45.1855 29.8115 44.7969 29.8115H38.75C38.3614 29.8115 38.0469 29.5021 38.0469 29.1309C38.0469 28.7493 38.3614 28.4399 38.75 28.4399ZM16.25 28.4399H10.2031C9.81447 28.4399 9.5 28.7493 9.5 29.1309C9.5 29.5021 9.81447 29.8115 10.2031 29.8115H16.25C16.6386 29.8115 16.9531 29.5021 16.9531 29.1309C16.9531 28.7493 16.6386 28.4399 16.25 28.4399Z" fill="white"/>
</mask>
<g mask="url(#mask0_11_2599)">
<rect x="9.5" y="10.4399" width="36" height="36" fill="#D39100"/>
</g>
</svg>
